0
SECTION
2
HEADER
9
$INSUNITS
70
4
9
$ACADVER
1
AC1014
9
$HANDSEED
5
FFFF
0
ENDSEC
0
SECTION
2
TABLES
0
TABLE
2
VPORT
5
8
100
AcDbSymbolTable
0
ENDTAB
0
TABLE
2
LTYPE
5
5
100
AcDbSymbolTable
0
LTYPE
5
14
100
AcDbSymbolTableRecord
100
AcDbLinetypeTableRecord
2
BYBLOCK
70
0
0
LTYPE
5
15
100
AcDbSymbolTableRecord
100
AcDbLinetypeTableRecord
2
BYLAYER
70
0
0
ENDTAB
0
TABLE
2
LAYER
5
2
100
AcDbSymbolTable
70
2
0
LAYER
5
50
100
AcDbSymbolTableRecord
100
AcDbLayerTableRecord
2
0
70
0
6
CONTINUOUS
0
ENDTAB
0
TABLE
2
STYLE
5
3
100
AcDbSymbolTable
70
1
0
STYLE
5
11
100
AcDbSymbolTableRecord
100
AcDbTextStyleTableRecord
2
STANDARD
70
0
0
ENDTAB
0
TABLE
2
VIEW
5
6
100
AcDbSymbolTable
70
0
0
ENDTAB
0
TABLE
2
UCS
5
7
100
AcDbSymbolTable
70
0
0
ENDTAB
0
TABLE
2
APPID
5
9
100
AcDbSymbolTable
70
2
0
APPID
5
12
100
AcDbSymbolTableRecord
100
AcDbRegAppTableRecord
2
ACAD
70
0
0
ENDTAB
0
TABLE
2
DIMSTYLE
5
A
100
AcDbSymbolTable
70
1
0
ENDTAB
0
TABLE
2
BLOCK_RECORD
5
1
100
AcDbSymbolTable
70
1
0
BLOCK_RECORD
5
1F
100
AcDbSymbolTableRecord
100
AcDbBlockTableRecord
2
*MODEL_SPACE
0
BLOCK_RECORD
5
1B
100
AcDbSymbolTableRecord
100
AcDbBlockTableRecord
2
*PAPER_SPACE
0
ENDTAB
0
ENDSEC
0
SECTION
2
BLOCKS
0
BLOCK
5
20
100
AcDbEntity
100
AcDbBlockBegin
2
*MODEL_SPACE
0
ENDBLK
5
21
100
AcDbEntity
100
AcDbBlockEnd
0
BLOCK
5
1C
100
AcDbEntity
100
AcDbBlockBegin
2
*PAPER_SPACE
0
ENDBLK
5
1D
100
AcDbEntity
100
AcDbBlockEnd
0
ENDSEC
0
SECTION
2
ENTITIES
0
LINE
5
100
100
AcDbEntity
8
0
100
AcDbLine
10
0
20
0
30
0
11
100
21
0
31
0
0
LINE
5
101
100
AcDbEntity
8
0
100
AcDbLine
10
0
20
40
30
0
11
-12.999999999999998
21
40
31
0
0
LINE
5
102
100
AcDbEntity
8
0
100
AcDbLine
10
100
20
40
30
0
11
113
21
40
31
0
0
SPLINE
5
103
100
AcDbEntity
8
0
100
AcDbSpline
70
1064
71
5
72
16
73
10
74
0
42
0.000000001
43
0.0000000001
44
0.0000000001
40
0
40
0
40
0
40
0
40
0
40
0
40
0.20000000000000001
40
0.40000000000000002
40
0.60000000000000009
40
0.80000000000000004
40
1
40
1
40
1
40
1
40
1
40
1
10
0
20
152
30
0
10
0.13917460174172572
20
146.93474681783988
30
0
10
0.34089142388114585
20
136.87227909596965
30
0
10
0.41366617019560392
20
121.9826076227402
30
0
10
0.019159623381021361
20
102.56612944478908
30
0
10
-1.6939947088805924
20
79.378736775634664
30
0
10
-4.655537792611983
20
62.241421505299776
30
0
10
-8.2211708005496131
20
50.582138021106296
30
0
10
-11.291425278442409
20
43.424714896213985
30
0
10
-12.999999999999998
20
40
30
0
0
SPLINE
5
104
100
AcDbEntity
8
0
100
AcDbSpline
70
1064
71
5
72
16
73
10
74
0
42
0.000000001
43
0.0000000001
44
0.0000000001
40
0
40
0
40
0
40
0
40
0
40
0
40
0.20000000000000001
40
0.40000000000000002
40
0.60000000000000009
40
0.80000000000000004
40
1
40
1
40
1
40
1
40
1
40
1
10
100
20
152
30
0
10
99.860825398258285
20
146.93474681783988
30
0
10
99.659108576118854
20
136.87227909596965
30
0
10
99.586333829804389
20
121.9826076227402
30
0
10
99.980840376618971
20
102.56612944478908
30
0
10
101.6939947088806
20
79.378736775634664
30
0
10
104.65553779261198
20
62.241421505299776
30
0
10
108.22117080054963
20
50.582138021106296
30
0
10
111.2914252784424
20
43.424714896213985
30
0
10
113
20
40
30
0
0
ARC
5
105
100
AcDbEntity
8
0
100
AcDbCircle
10
50.000000000000036
20
62.346153846153804
30
0
40
102.65384615384622
100
AcDbArc
50
60.851567603922554
51
119.14843239607751
0
CIRCLE
5
106
100
AcDbEntity
8
0
100
AcDbCircle
10
31.500000000000004
20
6.3749999999999982
30
0
40
1.5000000000000002
0
CIRCLE
5
107
100
AcDbEntity
8
0
100
AcDbCircle
10
31.500000000000004
20
43.374999999999993
30
0
40
1.5000000000000002
0
CIRCLE
5
108
100
AcDbEntity
8
0
100
AcDbCircle
10
68.5
20
43.374999999999993
30
0
40
1.5000000000000002
0
CIRCLE
5
109
100
AcDbEntity
8
0
100
AcDbCircle
10
68.5
20
6.3749999999999982
30
0
40
1.5000000000000002
0
CIRCLE
5
110
100
AcDbEntity
8
0
100
AcDbCircle
10
18.199999999999996
20
122.40000000000001
30
0
40
1.4999999999999964
0
CIRCLE
5
111
100
AcDbEntity
8
0
100
AcDbCircle
10
18.199999999999996
20
94.500000000000014
30
0
40
1.4999999999999978
0
CIRCLE
5
112
100
AcDbEntity
8
0
100
AcDbCircle
10
69
20
79.300000000000011
30
0
40
1.4999999999999958
0
CIRCLE
5
113
100
AcDbEntity
8
0
100
AcDbCircle
10
70.299999999999997
20
127.5
30
0
40
1.5000000000000031
0
LWPOLYLINE
5
114
100
AcDbEntity
8
0
100
AcDbPolyline
90
4
70
1
43
0.0
10
31.200000000000003
20
25.650000000000006
10
25.100000000000001
20
25.650000000000006
10
25.100000000000001
20
15.550000000000001
10
31.199999999999992
20
15.550000000000001
0
LINE
5
115
100
AcDbEntity
8
0
100
AcDbLine
10
0
20
25.650000000000006
30
0
11
6.1000000000000014
21
25.65000000000034
31
0
0
LINE
5
116
100
AcDbEntity
8
0
100
AcDbLine
10
6.1000000000000014
20
25.65000000000034
30
0
11
6.1000000000000014
21
15.550000000000335
31
0
0
LINE
5
117
100
AcDbEntity
8
0
100
AcDbLine
10
6.1000000000000014
20
15.550000000000335
30
0
11
0
21
15.550000000000001
31
0
0
LINE
5
118
100
AcDbEntity
8
0
100
AcDbLine
10
0
20
40
30
0
11
0
21
25.650000000000006
31
0
0
LINE
5
119
100
AcDbEntity
8
0
100
AcDbLine
10
0
20
15.550000000000001
30
0
11
0
21
0
31
0
0
LINE
5
120
100
AcDbEntity
8
0
100
AcDbLine
10
100
20
25.649999999999995
30
0
11
93.899999999999991
21
25.650000000000347
31
0
0
LINE
5
121
100
AcDbEntity
8
0
100
AcDbLine
10
93.899999999999991
20
25.650000000000347
30
0
11
93.899999999999991
21
15.550000000000342
31
0
0
LINE
5
122
100
AcDbEntity
8
0
100
AcDbLine
10
93.899999999999991
20
15.550000000000342
30
0
11
100
21
15.549999999999997
31
0
0
LWPOLYLINE
5
123
100
AcDbEntity
8
0
100
AcDbPolyline
90
4
70
1
43
0.0
10
68.800000000000011
20
15.550000000000004
10
68.799999999999997
20
25.650000000000009
10
74.899999999999991
20
25.650000000000009
10
74.899999999999991
20
15.550000000000004
0
LINE
5
124
100
AcDbEntity
8
0
100
AcDbLine
10
100
20
0
30
0
11
100
21
15.549999999999997
31
0
0
LINE
5
125
100
AcDbEntity
8
0
100
AcDbLine
10
100
20
25.649999999999995
30
0
11
100
21
40
31
0
0
LWPOLYLINE
5
126
100
AcDbEntity
8
0
100
AcDbPolyline
90
4
70
1
43
0.0
10
-113.06926391298751
20
103.82389322314674
42
-0.99999999999999989
10
-113.06926391298747
20
100.82389322314674
10
-116.06926391298749
20
100.8238932231467
42
-0.99999999999999989
10
-116.06926391298749
20
103.82389322314674
0
LWPOLYLINE
5
127
100
AcDbEntity
8
0
100
AcDbPolyline
90
8
70
1
43
0.0
10
-90.569263912987481
20
107.3238932231468
10
-119.06926391298748
20
107.3238932231468
10
-119.06926391298747
20
97.323893223146797
10
-90.569263912987481
20
97.32389322314674
10
-90.569263912987481
20
93.32389322314674
10
-85.569263912987481
20
93.323893223146712
10
-85.569263912987466
20
111.32389322314677
10
-90.569263912987481
20
111.3238932231468
0
LWPOLYLINE
5
128
100
AcDbEntity
8
0
100
AcDbPolyline
90
4
70
1
43
0.0
10
-95.569263912987509
20
100.8238932231468
10
-98.569263912987509
20
100.82389322314684
42
-0.99999999999999989
10
-98.569263912987481
20
103.82389322314674
10
-95.569263912987466
20
103.82389322314668
42
-0.99999999999999989
0
LINE
5
129
100
AcDbEntity
8
0
100
AcDbLine
10
-98.569263912987495
20
102.3238932231468
30
0
11
-95.569263912987481
21
102.32389322314674
31
0
0
LINE
5
130
100
AcDbEntity
8
0
100
AcDbLine
10
-116.06926391298749
20
102.32389322314673
30
0
11
-113.06926391298748
21
102.32389322314674
31
0
0
LWPOLYLINE
5
131
100
AcDbEntity
8
0
100
AcDbPolyline
90
20
70
1
43
0.0
10
-40.846439114716844
20
111.67587520506031
10
-65.846439114716844
20
111.67587520506032
10
-65.846439114716844
20
109.67587520506032
10
-71.84643911471683
20
109.67587520506032
10
-71.84643911471683
20
101.67587520506032
10
-65.846439114716844
20
101.67587520506044
10
-65.846439114716858
20
21.676288277511663
10
-71.846439114716844
20
21.676288277511773
10
-71.846439114716844
20
13.676288277511766
10
-65.846439114716844
20
13.676288277511762
10
-65.846439114716844
20
11.675875205060319
10
-40.846439114716866
20
11.675875205060319
10
-40.846439114716866
20
13.676288277511741
10
-34.846439114716866
20
13.67628827751175
10
-34.846439114716866
20
21.676288277511748
10
-40.846439114716866
20
21.676288277511642
10
-40.846439114716844
20
101.67587520506045
10
-34.846439114716851
20
101.67587520506034
10
-34.846439114716851
20
109.67587520506035
10
-40.846439114716844
20
109.67587520506035
0
LWPOLYLINE
5
132
100
AcDbEntity
8
0
100
AcDbPolyline
90
4
70
1
43
0.0
10
98.100000000000009
20
62
10
90
20
62
10
90
20
68.100000000000009
10
98.100000000000009
20
68.100000000000009
0
CIRCLE
5
133
100
AcDbEntity
8
0
100
AcDbCircle
10
-59.346439114716844
20
69.926081741286026
30
0
40
1.4999999999999944
0
CIRCLE
5
134
100
AcDbEntity
8
0
100
AcDbCircle
10
-59.34643911471683
20
53.426081741286055
30
0
40
1.4999999999999876
0
LWPOLYLINE
5
135
100
AcDbEntity
8
0
100
AcDbPolyline
90
4
70
1
43
0.0
10
-48.346439114716837
20
72.176081741286055
10
-45.346439114716837
20
72.176081741286055
10
-45.346439114716837
20
51.175379518118689
10
-48.346439114716837
20
51.175379518118689
0
CIRCLE
5
136
100
AcDbEntity
8
0
100
AcDbCircle
10
-53.346439114716866
20
87.176081741286026
30
0
40
3.4999999999999991
0
CIRCLE
5
137
100
AcDbEntity
8
0
100
AcDbCircle
10
-53.346439114716866
20
36.176081741286055
30
0
40
3.4999999999999867
0
LWPOLYLINE
5
138
100
AcDbEntity
8
0
100
AcDbPolyline
90
4
70
1
43
0.0
10
1.899999999999995
20
68.100000000000009
10
1.899999999999995
20
62.000000000000014
10
10
20
62.000000000000014
10
10
20
68.100000000000009
0
CIRCLE
5
139
100
AcDbEntity
8
0
100
AcDbCircle
10
8.7845296985550902
20
73.100000000000009
30
0
40
1.5000000000000002
0
CIRCLE
5
140
100
AcDbEntity
8
0
100
AcDbCircle
10
8.7845296985550085
20
148
30
0
40
1.5000000000000004
0
CIRCLE
5
141
100
AcDbEntity
8
0
100
AcDbCircle
10
91.215470301444981
20
148
30
0
40
1.5000000000000004
0
CIRCLE
5
142
100
AcDbEntity
8
0
100
AcDbCircle
10
91.215470301444924
20
73.100000000000009
30
0
40
1.5000000000000002
0
CIRCLE
5
143
100
AcDbEntity
8
0
100
AcDbCircle
10
76.5
20
43.75
30
0
40
2.4999999999999964
0
CIRCLE
5
144
100
AcDbEntity
8
0
100
AcDbCircle
10
23.500000000000007
20
43.75
30
0
40
2.4999999999999996
0
LWPOLYLINE
5
145
100
AcDbEntity
8
0
100
AcDbPolyline
90
4
70
1
43
0.0
10
54.000000804662704
20
51.25
10
45.999999195337296
20
51.25
42
-0.99999999999999989
10
45.999999195337296
20
56.25
10
54.000000804662704
20
56.25
42
-0.99999999999999989
0
LINE
5
146
100
AcDbEntity
8
0
100
AcDbLine
10
45.999999195337296
20
53.75
30
0
11
54.000000804662704
21
53.75
31
0
0
CIRCLE
5
147
100
AcDbEntity
8
0
100
AcDbCircle
10
89.299999999999997
20
110
30
0
40
3.9999999999999964
0
CIRCLE
5
148
100
AcDbEntity
8
0
100
AcDbCircle
10
24.199999999999996
20
137
30
0
40
2.5
0
CIRCLE
5
149
100
AcDbEntity
8
0
100
AcDbCircle
10
41.199999999999989
20
137
30
0
40
2.5
0
CIRCLE
5
150
100
AcDbEntity
8
0
100
AcDbCircle
10
58.199999999999996
20
137
30
0
40
2.5
0
CIRCLE
5
151
100
AcDbEntity
8
0
100
AcDbCircle
10
75.199999999999989
20
137
30
0
40
2.4999999999999951
0
CIRCLE
5
152
100
AcDbEntity
8
0
100
AcDbCircle
10
41.199999999999989
20
69.700000000000017
30
0
40
2.5
0
CIRCLE
5
153
100
AcDbEntity
8
0
100
AcDbCircle
10
24.199999999999996
20
69.700000000000017
30
0
40
2.5
0
CIRCLE
5
154
100
AcDbEntity
8
0
100
AcDbCircle
10
58.199999999999996
20
69.700000000000017
30
0
40
2.5
0
CIRCLE
5
155
100
AcDbEntity
8
0
100
AcDbCircle
10
75.199999999999989
20
69.700000000000017
30
0
40
2.4999999999999951
0
LWPOLYLINE
5
156
100
AcDbEntity
8
0
100
AcDbPolyline
90
4
70
1
43
0.0
10
214.89951687461215
20
15.182202668491538
10
208.79951687461215
20
15.18220266849154
10
208.79951687461215
20
25.282202668491532
10
214.89951687461215
20
25.282202668491543
0
CIRCLE
5
157
100
AcDbEntity
8
0
100
AcDbCircle
10
148.52715062683492
20
148.00147222847312
30
0
40
1.5000000000000004
0
LINE
5
158
100
AcDbEntity
8
0
100
AcDbLine
10
239.99951687460685
20
-0.36779733150846861
30
0
11
239.99951687461007
21
15.549999999963468
31
0
0
LINE
5
159
100
AcDbEntity
8
0
100
AcDbLine
10
146.09951687459863
20
15.549999999963104
30
0
11
139.99951687460364
21
15.549999999963449
31
0
0
CIRCLE
5
160
100
AcDbEntity
8
0
100
AcDbCircle
10
171.49951687460683
20
43.00720266849153
30
0
40
1.5000000000000002
0
LINE
5
161
100
AcDbEntity
8
0
100
AcDbLine
10
139.99951687460364
20
15.549999999963449
30
0
11
139.99951687460685
21
-0.36779733150846861
31
0
0
LWPOLYLINE
5
162
100
AcDbEntity
8
0
100
AcDbPolyline
90
4
70
1
43
0.0
10
238.09951687460682
20
67.732202668491539
10
238.09951687460682
20
61.63220266849153
10
229.99951687460683
20
61.63220266849153
10
229.99951687460683
20
67.732202668491539
0
LWPOLYLINE
5
163
100
AcDbEntity
8
0
100
AcDbPolyline
90
4
70
1
43
0.0
10
165.09951687460159
20
25.282202668491532
10
165.09951687460159
20
15.182202668491534
10
171.19951687460158
20
15.182202668491534
10
171.19951687460158
20
25.282202668491532
0
CIRCLE
5
164
100
AcDbEntity
8
0
100
AcDbCircle
10
208.4995168746068
20
6.0072026684915318
30
0
40
1.5000000000000002
0
LINE
5
165
100
AcDbEntity
8
0
100
AcDbLine
10
186.01613818259099
20
53.382202668491544
30
0
11
193.98289556662277
21
53.382202668491523
31
0
0
CIRCLE
5
166
100
AcDbEntity
8
0
100
AcDbCircle
10
231.4718831223787
20
148.00147222847312
30
0
40
1.5000000000000004
0
CIRCLE
5
167
100
AcDbEntity
8
0
100
AcDbCircle
10
163.49951687460677
20
43.382202668491544
30
0
40
2.4999999999999996
0
CIRCLE
5
168
100
AcDbEntity
8
0
100
AcDbCircle
10
216.49951687460683
20
43.38220266849153
30
0
40
2.4999999999999964
0
LINE
5
169
100
AcDbEntity
8
0
100
AcDbLine
10
146.09951687460159
20
25.649999999952428
30
0
11
146.09951687459863
21
15.549999999963104
31
0
0
LWPOLYLINE
5
170
100
AcDbEntity
8
0
100
AcDbPolyline
90
4
70
1
43
0.0
10
149.99951687460685
20
67.732202668491539
10
141.89951687460689
20
67.732202668491524
10
141.89951687460689
20
61.632202668491516
10
149.99951687460685
20
61.63220266849153
0
LINE
5
171
100
AcDbEntity
8
0
100
AcDbLine
10
139.99951687459878
20
39.632202668491537
30
0
11
126.99951687459875
21
39.63220266849153
31
0
0
LWPOLYLINE
5
172
100
AcDbEntity
8
0
100
AcDbPolyline
90
4
70
1
43
0.0
10
193.98289556662277
20
50.882202668491551
10
186.01613818259099
20
50.882202668491558
42
-0.99999999999999989
10
186.01613818259099
20
55.882202668491523
10
193.98289556662277
20
55.882202668491495
42
-0.99999999999999989
0
LINE
5
173
100
AcDbEntity
8
0
100
AcDbLine
10
139.99951687459878
20
39.632202668491537
30
0
11
139.9995168746016
21
25.649999999953486
31
0
0
LINE
5
174
100
AcDbEntity
8
0
100
AcDbLine
10
239.99951687461214
20
25.649999999953501
30
0
11
239.99951687461498
21
39.63220266849153
31
0
0
CIRCLE
5
175
100
AcDbEntity
8
0
100
AcDbCircle
10
208.4995168746068
20
43.00720266849153
30
0
40
1.5000000000000002
0
LINE
5
176
100
AcDbEntity
8
0
100
AcDbLine
10
233.89951687461507
20
15.549999999963118
30
0
11
239.99951687461007
21
15.549999999963468
31
0
0
LINE
5
177
100
AcDbEntity
8
0
100
AcDbLine
10
139.99951687460685
20
-0.36779733150846861
30
0
11
239.99951687460685
21
-0.36779733150846861
31
0
0
LINE
5
178
100
AcDbEntity
8
0
100
AcDbLine
10
139.9995168746016
20
25.649999999953486
30
0
11
146.09951687460159
21
25.649999999952428
31
0
0
LINE
5
179
100
AcDbEntity
8
0
100
AcDbLine
10
239.99951687461214
20
25.649999999953501
30
0
11
233.89951687461212
21
25.649999999952442
31
0
0
SPLINE
5
180
100
AcDbEntity
8
0
100
AcDbSpline
70
1064
71
5
72
16
73
10
74
0
42
0.000000001
43
0.0000000001
44
0.0000000001
40
0
40
0
40
0
40
0
40
0
40
0
40
0.20000000000000001
40
0.40000000000000002
40
0.60000000000000009
40
0.80000000000000004
40
1
40
1
40
1
40
1
40
1
40
1
10
140.2167383007326
20
151.75076449383567
30
0
10
140.34860754669012
20
146.67883855732583
30
0
10
140.53499084677048
20
136.6034115755636
30
0
10
140.5825991328156
20
121.69545908507972
30
0
10
140.1510653564257
20
102.25674839337516
30
0
10
138.38963468499566
20
79.044974033842038
30
0
10
135.39122758260791
20
61.891344731061288
30
0
10
131.80065944257424
20
50.222168831791947
30
0
10
128.71527947294769
20
43.059330204452522
30
0
10
126.99951687459875
20
39.63220266849153
30
0
0
SPLINE
5
181
100
AcDbEntity
8
0
100
AcDbSpline
70
1064
71
5
72
16
73
10
74
0
42
0.000000001
43
0.0000000001
44
0.0000000001
40
0
40
0
40
0
40
0
40
0
40
0
40
0.20000000000000001
40
0.40000000000000002
40
0.60000000000000009
40
0.80000000000000004
40
1
40
1
40
1
40
1
40
1
40
1
10
239.78229544848105
20
151.7507644938357
30
0
10
239.65042620252351
20
146.67883855732589
30
0
10
239.4640429024434
20
136.60341157556363
30
0
10
239.41643461640214
20
121.69545908507969
30
0
10
239.84796839279267
20
102.25674839337526
30
0
10
241.60939906422118
20
79.04497403384218
30
0
10
244.60780616660631
20
61.89134473106143
30
0
10
248.19837430663944
20
50.222168831792004
30
0
10
251.283754276266
20
43.05933020445255
30
0
10
252.99951687461493
20
39.632202668491551
30
0
0
LINE
5
182
100
AcDbEntity
8
0
100
AcDbLine
10
233.89951687461212
20
25.649999999952442
30
0
11
233.89951687461507
21
15.549999999963118
31
0
0
LINE
5
183
100
AcDbEntity
8
0
100
AcDbLine
10
239.99951687461498
20
39.63220266849153
30
0
11
252.99951687461498
21
39.63220266849153
31
0
0
CIRCLE
5
184
100
AcDbEntity
8
0
100
AcDbCircle
10
171.4995168746068
20
6.0072026684915301
30
0
40
1.5000000000000002
0
ARC
5
185
100
AcDbEntity
8
0
100
AcDbCircle
10
189.99951687460685
20
61.993954666594
30
0
40
102.63824800189752
100
AcDbArc
50
60.985466848115038
51
119.01453315188498
0
CIRCLE
5
186
100
AcDbEntity
8
0
100
AcDbCircle
10
231.47188312237893
20
72.732202668491539
30
0
40
1.5000000000000002
0
CIRCLE
5
187
100
AcDbEntity
8
0
100
AcDbCircle
10
148.52715062683475
20
72.732202668491524
30
0
40
1.5000000000000002
0
CIRCLE
5
188
100
AcDbEntity
8
0
100
AcDbCircle
10
50
20
152
30
0
40
1.5000000000000062
0
CIRCLE
5
189
100
AcDbEntity
8
0
100
AcDbCircle
10
189.9995168746068
20
151.63220266849154
30
0
40
1.5000000000000124
0
CIRCLE
5
190
100
AcDbEntity
8
0
100
AcDbCircle
10
165.4995168746068
20
131.00020366842389
30
0
40
1.5000000000000098
0
CIRCLE
5
191
100
AcDbEntity
8
0
100
AcDbCircle
10
165.49951687460685
20
73.000203668423893
30
0
40
1.4999999999999956
0
CIRCLE
5
192
100
AcDbEntity
8
0
100
AcDbCircle
10
214.49951687460683
20
73.000203668423879
30
0
40
1.5000000000000082
0
CIRCLE
5
193
100
AcDbEntity
8
0
100
AcDbCircle
10
214.49951687460685
20
131.00020366842386
30
0
40
1.5000000000000071
0
LWPOLYLINE
5
194
100
AcDbEntity
8
0
100
AcDbPolyline
90
4
70
1
43
0.0
10
160.49951687460685
20
129.00000192224979
10
155.49951687460685
20
129.00000192224979
10
155.49951687460685
20
74.00000192224978
10
160.49951687460685
20
74.00000192224978
0
LWPOLYLINE
5
195
100
AcDbEntity
8
0
100
AcDbPolyline
90
4
70
1
43
0.0
10
219.49951687460691
20
74.00000192224978
10
219.49951687460683
20
129.00000192224977
10
224.4995168746068
20
129.00000192224977
10
224.49951687460685
20
74.00000192224978
0
CIRCLE
5
196
100
AcDbEntity
8
0
100
AcDbCircle
10
168.49951687460685
20
106.00020366842388
30
0
40
2.500000000000008
0
CIRCLE
5
197
100
AcDbEntity
8
0
100
AcDbCircle
10
168.4995168746068
20
151.00020366842389
30
0
40
2.500000000000004
0
CIRCLE
5
198
100
AcDbEntity
8
0
100
AcDbCircle
10
211.49951687460683
20
151.00020366842389
30
0
40
2.500000000000004
0
CIRCLE
5
199
100
AcDbEntity
8
0
100
AcDbCircle
10
211.49951687460683
20
106.00020366842388
30
0
40
2.500000000000008
0
LWPOLYLINE
5
200
100
AcDbEntity
8
0
100
AcDbPolyline
90
12
70
1
43
0.0
10
354.85570619501277
20
189.83940049830215
10
354.85570619501277
20
-0.16059950169778667
10
343.00570619501275
20
-0.16059950169774351
10
343.00570619501275
20
5.9394004983022795
10
332.90570619501273
20
5.9394004983022768
10
332.90570619501273
20
-0.16059950169774573
10
279.85570619501277
20
-0.16059950169776016
10
279.85570619501277
20
189.83940049830224
10
332.90570619501273
20
189.83940049830215
10
332.90570619501273
20
183.73940049830219
10
343.00570619501275
20
183.73940049830213
10
343.00627759384975
20
189.83940049830215
0
CIRCLE
5
201
100
AcDbEntity
8
0
100
AcDbCircle
10
346.85570619501283
20
34.839400498302268
30
0
40
2.9999999999999809
0
CIRCLE
5
202
100
AcDbEntity
8
0
100
AcDbCircle
10
287.85570619501277
20
7.8394004983022638
30
0
40
3.0000000000000133
0
CIRCLE
5
203
100
AcDbEntity
8
0
100
AcDbCircle
10
287.85570619501277
20
181.83940049830215
30
0
40
3.0000000000000124
0
CIRCLE
5
204
100
AcDbEntity
8
0
100
AcDbCircle
10
346.85570619501289
20
154.83940049830215
30
0
40
2.9999999999999987
0
CIRCLE
5
205
100
AcDbEntity
8
0
100
AcDbCircle
10
337.63783003924681
20
141.64425373727474
30
0
40
1.5000000000000031
0
CIRCLE
5
206
100
AcDbEntity
8
0
100
AcDbCircle
10
285.53783003924678
20
136.54425373727474
30
0
40
1.4999999999999964
0
CIRCLE
5
207
100
AcDbEntity
8
0
100
AcDbCircle
10
285.53783003924678
20
108.64425373727472
30
0
40
1.4999999999999978
0
CIRCLE
5
208
100
AcDbEntity
8
0
100
AcDbCircle
10
336.3378300392468
20
93.444253737274735
30
0
40
1.4999999999999958
0
CIRCLE
5
209
100
AcDbEntity
8
0
100
AcDbCircle
10
335.8378300392468
20
78.930172016806864
30
0
40
1.5999999999999988
0
CIRCLE
5
210
100
AcDbEntity
8
0
100
AcDbCircle
10
298.8378300392468
20
78.930172016806864
30
0
40
1.6000000000000014
0
CIRCLE
5
211
100
AcDbEntity
8
0
100
AcDbCircle
10
335.8378300392468
20
41.930172016806878
30
0
40
1.5999999999999996
0
CIRCLE
5
212
100
AcDbEntity
8
0
100
AcDbCircle
10
298.8378300392468
20
41.930172016806878
30
0
40
1.5999999999999983
0
LWPOLYLINE
5
213
100
AcDbEntity
8
0
100
AcDbPolyline
90
4
70
1
43
0.0
10
343.00570619501275
20
31.039400498302278
10
332.90570619501273
20
31.039400498302278
10
332.90570619501273
20
24.939400498302277
10
343.00570619501275
20
24.939400498302277
0
LWPOLYLINE
5
214
100
AcDbEntity
8
0
100
AcDbPolyline
90
4
70
1
43
0.0
10
332.90570619501273
20
164.73940049830216
10
343.00570619501275
20
164.73940049830216
10
343.00570619501275
20
158.63940049830211
10
332.90570619501273
20
158.63940049830217
0
CIRCLE
5
215
100
AcDbEntity
8
0
100
AcDbCircle
10
317.3378300392468
20
158.33611135111136
30
0
40
4.9999999999999885
0
CIRCLE
5
216
100
AcDbEntity
8
0
100
AcDbCircle
10
317.3378300392468
20
86.249572838972384
30
0
40
2.0000000000000169
0
CIRCLE
5
217
100
AcDbEntity
8
0
100
AcDbCircle
10
317.3378300392468
20
32.401300342756151
30
0
40
2.5000000000000155
0
CIRCLE
5
218
100
AcDbEntity
8
0
100
AcDbCircle
10
345.55433210095748
20
60.430172016806893
30
0
40
2.5
0
CIRCLE
5
219
100
AcDbEntity
8
0
100
AcDbCircle
10
336.48493941977608
20
86.285215515909698
30
0
40
2.0000000000000191
0
CIRCLE
5
220
100
AcDbEntity
8
0
100
AcDbCircle
10
335.92405884931031
20
34.622193372045622
30
0
40
2.0000000000000284
0
CIRCLE
5
221
100
AcDbEntity
8
0
100
AcDbCircle
10
295.8378300392468
20
30.639111268661033
30
0
40
2.0000000000000031
0
CIRCLE
5
222
100
AcDbEntity
8
0
100
AcDbCircle
10
295.13465753438965
20
86.900089595989783
30
0
40
1.9999999999999929
0
CIRCLE
5
223
100
AcDbEntity
8
0
100
AcDbCircle
10
378
20
182
30
0
40
3.0000000000000124
0
LWPOLYLINE
5
224
100
AcDbEntity
8
0
100
AcDbPolyline
90
8
70
1
43
0.0
10
433.14999999999998
20
190
10
445
20
190
10
445
20
3.944304526105059e-30
10
433.14999999999998
20
7.6524327413280993e-15
10
423.05000000000001
20
8.454474590267456e-14
10
370
20
0
10
370
20
190
10
423.05000000000001
20
190
0
CIRCLE
5
225
100
AcDbEntity
8
0
100
AcDbCircle
10
437
20
154.99999999999997
30
0
40
2.9999999999999987
0
CIRCLE
5
226
100
AcDbEntity
8
0
100
AcDbCircle
10
378
20
8.0000000000000089
30
0
40
3.0000000000000133
0
CIRCLE
5
227
100
AcDbEntity
8
0
100
AcDbCircle
10
437
20
35.000000000000014
30
0
40
2.9999999999999809
0
LWPOLYLINE
5
228
100
AcDbEntity
8
0
100
AcDbPolyline
90
8
70
1
43
0.0
10
535
20
190
10
535
20
3.944304526105059e-30
10
523.14999999999998
20
7.6524327413280993e-15
10
513.04999999999995
20
8.454474590267456e-14
10
460
20
0
10
460
20
190
10
513.04999999999995
20
190
10
523.14999999999998
20
190
0
CIRCLE
5
229
100
AcDbEntity
8
0
100
AcDbCircle
10
527
20
35.000000000000014
30
0
40
2.9999999999999809
0
CIRCLE
5
230
100
AcDbEntity
8
0
100
AcDbCircle
10
468
20
182
30
0
40
3.0000000000000124
0
CIRCLE
5
231
100
AcDbEntity
8
0
100
AcDbCircle
10
468
20
8.0000000000000089
30
0
40
3.0000000000000133
0
CIRCLE
5
232
100
AcDbEntity
8
0
100
AcDbCircle
10
527
20
154.99999999999997
30
0
40
2.9999999999999987
0
CIRCLE
5
233
100
AcDbEntity
8
0
100
AcDbCircle
10
401.26649657266887
20
86.780991271627187
30
0
40
1.4999999999999876
0
CIRCLE
5
234
100
AcDbEntity
8
0
100
AcDbCircle
10
401.26649657266887
20
103.28099127162722
30
0
40
1.4999999999999944
0
LWPOLYLINE
5
235
100
AcDbEntity
8
0
100
AcDbPolyline
90
4
70
1
43
0.0
10
412.26649657266887
20
105.53099127162723
10
415.26649657266887
20
105.53099127162723
10
415.26649657266887
20
84.530991271627215
10
412.26649657266887
20
84.530991271627215
0
LINE
5
236
100
AcDbEntity
8
0
100
AcDbLine
10
-98.569263912987495
20
75.65722655648014
30
0
11
-95.569263912987481
21
75.657226556480083
31
0
0
LWPOLYLINE
5
237
100
AcDbEntity
8
0
100
AcDbPolyline
90
4
70
1
43
0.0
10
-95.569263912987509
20
74.157226556480126
10
-98.569263912987509
20
74.157226556480182
42
-0.99999999999999989
10
-98.569263912987481
20
77.157226556480083
10
-95.569263912987466
20
77.157226556480026
42
-0.99999999999999989
0
LWPOLYLINE
5
238
100
AcDbEntity
8
0
100
AcDbPolyline
90
4
70
1
43
0.0
10
-116.06926391298749
20
74.15722655648004
42
-0.99999999999999989
10
-116.06926391298749
20
77.157226556480083
10
-113.06926391298751
20
77.157226556480083
42
-0.99999999999999989
10
-113.06926391298747
20
74.157226556480083
0
LINE
5
239
100
AcDbEntity
8
0
100
AcDbLine
10
-116.06926391298749
20
75.657226556480055
30
0
11
-113.06926391298748
21
75.657226556480083
31
0
0
LWPOLYLINE
5
240
100
AcDbEntity
8
0
100
AcDbPolyline
90
8
70
1
43
0.0
10
-85.569263912987466
20
84.657226556480097
10
-85.569263912987481
20
66.657226556480055
10
-90.569263912987481
20
66.657226556480083
10
-90.569263912987481
20
70.657226556480083
10
-119.06926391298747
20
70.65722655648014
10
-119.06926391298748
20
80.65722655648014
10
-90.569263912987481
20
80.65722655648014
10
-90.569263912987481
20
84.65722655648014
0
LINE
5
241
100
AcDbEntity
8
0
100
AcDbLine
10
-98.569263912987495
20
48.990559889813461
30
0
11
-95.569263912987481
21
48.990559889813412
31
0
0
LWPOLYLINE
5
242
100
AcDbEntity
8
0
100
AcDbPolyline
90
4
70
1
43
0.0
10
-95.569263912987509
20
47.490559889813461
10
-98.569263912987509
20
47.490559889813511
42
-0.99999999999999989
10
-98.569263912987481
20
50.490559889813412
10
-95.569263912987466
20
50.490559889813362
42
-0.99999999999999989
0
LWPOLYLINE
5
243
100
AcDbEntity
8
0
100
AcDbPolyline
90
4
70
1
43
0.0
10
-116.06926391298749
20
47.490559889813369
42
-0.99999999999999989
10
-116.06926391298749
20
50.490559889813412
10
-113.06926391298751
20
50.490559889813412
42
-0.99999999999999989
10
-113.06926391298747
20
47.490559889813404
0
LINE
5
244
100
AcDbEntity
8
0
100
AcDbLine
10
-116.06926391298749
20
48.99055988981339
30
0
11
-113.06926391298748
21
48.990559889813412
31
0
0
LWPOLYLINE
5
245
100
AcDbEntity
8
0
100
AcDbPolyline
90
8
70
1
43
0.0
10
-85.569263912987466
20
57.990559889813433
10
-85.569263912987481
20
39.99055988981339
10
-90.569263912987481
20
39.990559889813404
10
-90.569263912987481
20
43.990559889813412
10
-119.06926391298747
20
43.990559889813461
10
-119.06926391298748
20
53.990559889813461
10
-90.569263912987481
20
53.990559889813461
10
-90.569263912987481
20
57.990559889813468
0
LINE
5
246
100
AcDbEntity
8
0
100
AcDbLine
10
-98.569263912987495
20
22.323893223146793
30
0
11
-95.569263912987481
21
22.32389322314674
31
0
0
LWPOLYLINE
5
247
100
AcDbEntity
8
0
100
AcDbPolyline
90
4
70
1
43
0.0
10
-95.569263912987509
20
20.82389322314679
10
-98.569263912987509
20
20.823893223146843
42
-0.99999999999999989
10
-98.569263912987481
20
23.823893223146744
10
-95.569263912987466
20
23.82389322314669
42
-0.99999999999999989
0
LWPOLYLINE
5
248
100
AcDbEntity
8
0
100
AcDbPolyline
90
4
70
1
43
0.0
10
-116.06926391298749
20
20.823893223146701
42
-0.99999999999999989
10
-116.06926391298749
20
23.823893223146744
10
-113.06926391298751
20
23.823893223146744
42
-0.99999999999999989
10
-113.06926391298747
20
20.823893223146737
0
LINE
5
249
100
AcDbEntity
8
0
100
AcDbLine
10
-116.06926391298749
20
22.323893223146722
30
0
11
-113.06926391298748
21
22.32389322314674
31
0
0
LWPOLYLINE
5
250
100
AcDbEntity
8
0
100
AcDbPolyline
90
8
70
1
43
0.0
10
-85.569263912987466
20
31.323893223146761
10
-85.569263912987481
20
13.323893223146719
10
-90.569263912987481
20
13.323893223146737
10
-90.569263912987481
20
17.32389322314674
10
-119.06926391298747
20
17.323893223146793
10
-119.06926391298748
20
27.323893223146793
10
-90.569263912987481
20
27.323893223146793
10
-90.569263912987481
20
31.323893223146797
0
LWPOLYLINE
5
251
100
AcDbEntity
8
0
100
AcDbPolyline
90
4
70
1
43
0.0
10
-161.50351371373702
20
103.82389322314677
10
-158.50351371373702
20
103.82389322314677
42
-0.99999999999999989
10
-158.50351371373699
20
100.82389322314675
10
-161.50351371373702
20
100.82389322314671
42
-0.99999999999999989
0
LWPOLYLINE
5
252
100
AcDbEntity
8
0
100
AcDbPolyline
90
4
70
1
43
0.0
10
-144.00351371373705
20
100.82389322314685
42
-0.99999999999999989
10
-144.00351371373699
20
103.82389322314677
10
-141.00351371373699
20
103.82389322314671
42
-0.99999999999999989
10
-141.00351371373702
20
100.82389322314681
0
LWPOLYLINE
5
253
100
AcDbEntity
8
0
100
AcDbPolyline
90
8
70
1
43
0.0
10
-170.50351371373699
20
107.32389322314681
10
-170.50351371373699
20
97.323893223146769
10
-136.00351371373682
20
97.323893223146939
10
-136.00351371373682
20
93.323893223146939
10
-131.00351371373716
20
93.323893223146598
10
-131.00351371373756
20
111.32389322314634
10
-136.00351371373702
20
111.32389322314681
10
-136.00351371373702
20
107.32389322314681
0
LINE
5
254
100
AcDbEntity
8
0
100
AcDbLine
10
-144.00351371373702
20
102.32389322314681
30
0
11
-141.00351371373702
21
102.32389322314675
31
0
0
LINE
5
255
100
AcDbEntity
8
0
100
AcDbLine
10
-161.50351371373702
20
102.32389322314674
30
0
11
-158.50351371373702
21
102.32389322314675
31
0
0
LWPOLYLINE
5
256
100
AcDbEntity
8
0
100
AcDbPolyline
90
4
70
1
43
0.0
10
-161.50351371373702
20
74.157226556480055
42
-0.99999999999999989
10
-161.50351371373702
20
77.157226556480097
10
-158.50351371373702
20
77.157226556480097
42
-0.99999999999999989
10
-158.50351371373699
20
74.157226556480097
0
LWPOLYLINE
5
257
100
AcDbEntity
8
0
100
AcDbPolyline
90
8
70
1
43
0.0
10
-131.00351371373756
20
84.657226556479671
10
-131.00351371373716
20
66.657226556479941
10
-136.00351371373682
20
66.657226556480268
10
-136.00351371373682
20
70.657226556480282
10
-170.50351371373699
20
70.657226556480111
10
-170.50351371373699
20
80.657226556480154
10
-136.00351371373702
20
80.657226556480154
10
-136.00351371373702
20
84.657226556480154
0
LWPOLYLINE
5
258
100
AcDbEntity
8
0
100
AcDbPolyline
90
4
70
1
43
0.0
10
-141.00351371373699
20
77.157226556480055
42
-0.99999999999999989
10
-141.00351371373702
20
74.15722655648014
10
-144.00351371373705
20
74.157226556480197
42
-0.99999999999999989
10
-144.00351371373699
20
77.157226556480097
0
LINE
5
259
100
AcDbEntity
8
0
100
AcDbLine
10
-161.50351371373702
20
75.657226556480083
30
0
11
-158.50351371373702
21
75.657226556480097
31
0
0
LINE
5
260
100
AcDbEntity
8
0
100
AcDbLine
10
-144.00351371373702
20
75.657226556480154
30
0
11
-141.00351371373702
21
75.657226556480097
31
0
0
LWPOLYLINE
5
261
100
AcDbEntity
8
0
100
AcDbPolyline
90
4
70
1
43
0.0
10
-161.50351371373702
20
47.49055988981339
42
-0.99999999999999989
10
-161.50351371373702
20
50.490559889813433
10
-158.50351371373702
20
50.490559889813433
42
-0.99999999999999989
10
-158.50351371373699
20
47.490559889813426
0
LWPOLYLINE
5
262
100
AcDbEntity
8
0
100
AcDbPolyline
90
8
70
1
43
0.0
10
-131.00351371373756
20
57.990559889813007
10
-131.00351371373716
20
39.990559889813262
10
-136.00351371373682
20
39.990559889813603
10
-136.00351371373682
20
43.990559889813603
10
-170.50351371373699
20
43.990559889813447
10
-170.50351371373699
20
53.990559889813483
10
-136.00351371373702
20
53.990559889813483
10
-136.00351371373702
20
57.990559889813483
0
LWPOLYLINE
5
263
100
AcDbEntity
8
0
100
AcDbPolyline
90
4
70
1
43
0.0
10
-141.00351371373699
20
50.490559889813376
42
-0.99999999999999989
10
-141.00351371373702
20
47.490559889813476
10
-144.00351371373705
20
47.490559889813532
42
-0.99999999999999989
10
-144.00351371373699
20
50.490559889813433
0
LINE
5
264
100
AcDbEntity
8
0
100
AcDbLine
10
-161.50351371373702
20
48.990559889813412
30
0
11
-158.50351371373702
21
48.990559889813426
31
0
0
LINE
5
265
100
AcDbEntity
8
0
100
AcDbLine
10
-144.00351371373702
20
48.990559889813483
30
0
11
-141.00351371373702
21
48.990559889813426
31
0
0
LWPOLYLINE
5
266
100
AcDbEntity
8
0
100
AcDbPolyline
90
4
70
1
43
0.0
10
-161.50351371373702
20
20.823893223146719
42
-0.99999999999999989
10
-161.50351371373702
20
23.823893223146761
10
-158.50351371373702
20
23.823893223146761
42
-0.99999999999999989
10
-158.50351371373699
20
20.823893223146754
0
LWPOLYLINE
5
267
100
AcDbEntity
8
0
100
AcDbPolyline
90
8
70
1
43
0.0
10
-131.00351371373756
20
31.323893223146335
10
-131.00351371373716
20
13.323893223146595
10
-136.00351371373682
20
13.323893223146932
10
-136.00351371373682
20
17.323893223146936
10
-170.50351371373699
20
17.323893223146776
10
-170.50351371373699
20
27.323893223146811
10
-136.00351371373702
20
27.323893223146811
10
-136.00351371373702
20
31.323893223146815
0
LWPOLYLINE
5
268
100
AcDbEntity
8
0
100
AcDbPolyline
90
4
70
1
43
0.0
10
-141.00351371373699
20
23.823893223146708
42
-0.99999999999999989
10
-141.00351371373702
20
20.823893223146808
10
-144.00351371373705
20
20.823893223146861
42
-0.99999999999999989
10
-144.00351371373699
20
23.823893223146761
0
LINE
5
269
100
AcDbEntity
8
0
100
AcDbLine
10
-161.50351371373702
20
22.32389322314674
30
0
11
-158.50351371373702
21
22.323893223146758
31
0
0
LINE
5
270
100
AcDbEntity
8
0
100
AcDbLine
10
-144.00351371373702
20
22.323893223146811
30
0
11
-141.00351371373702
21
22.323893223146758
31
0
0
ENDSEC
0
SECTION
2
OBJECTS
0
DICTIONARY
5
C
100
AcDbDictionary
3
ACAD_GROUP
350
D
3
ACAD_MLINESTYLE
350
17
0
DICTIONARY
5
D
100
AcDbDictionary
0
DICTIONARY
5
1A
330
C
100
AcDbDictionary
0
DICTIONARY
5
17
100
AcDbDictionary
0
ENDSEC
0
EOF
