0
SECTION
2
HEADER
9
$INSUNITS
70
4
9
$ACADVER
1
AC1014
9
$HANDSEED
5
FFFF
0
ENDSEC
0
SECTION
2
TABLES
0
TABLE
2
VPORT
5
8
100
AcDbSymbolTable
0
ENDTAB
0
TABLE
2
LTYPE
5
5
100
AcDbSymbolTable
0
LTYPE
5
14
100
AcDbSymbolTableRecord
100
AcDbLinetypeTableRecord
2
BYBLOCK
70
0
0
LTYPE
5
15
100
AcDbSymbolTableRecord
100
AcDbLinetypeTableRecord
2
BYLAYER
70
0
0
ENDTAB
0
TABLE
2
LAYER
5
2
100
AcDbSymbolTable
70
2
0
LAYER
5
50
100
AcDbSymbolTableRecord
100
AcDbLayerTableRecord
2
0
70
0
6
CONTINUOUS
0
ENDTAB
0
TABLE
2
STYLE
5
3
100
AcDbSymbolTable
70
1
0
STYLE
5
11
100
AcDbSymbolTableRecord
100
AcDbTextStyleTableRecord
2
STANDARD
70
0
0
ENDTAB
0
TABLE
2
VIEW
5
6
100
AcDbSymbolTable
70
0
0
ENDTAB
0
TABLE
2
UCS
5
7
100
AcDbSymbolTable
70
0
0
ENDTAB
0
TABLE
2
APPID
5
9
100
AcDbSymbolTable
70
2
0
APPID
5
12
100
AcDbSymbolTableRecord
100
AcDbRegAppTableRecord
2
ACAD
70
0
0
ENDTAB
0
TABLE
2
DIMSTYLE
5
A
100
AcDbSymbolTable
70
1
0
ENDTAB
0
TABLE
2
BLOCK_RECORD
5
1
100
AcDbSymbolTable
70
1
0
BLOCK_RECORD
5
1F
100
AcDbSymbolTableRecord
100
AcDbBlockTableRecord
2
*MODEL_SPACE
0
BLOCK_RECORD
5
1B
100
AcDbSymbolTableRecord
100
AcDbBlockTableRecord
2
*PAPER_SPACE
0
ENDTAB
0
ENDSEC
0
SECTION
2
BLOCKS
0
BLOCK
5
20
100
AcDbEntity
100
AcDbBlockBegin
2
*MODEL_SPACE
0
ENDBLK
5
21
100
AcDbEntity
100
AcDbBlockEnd
0
BLOCK
5
1C
100
AcDbEntity
100
AcDbBlockBegin
2
*PAPER_SPACE
0
ENDBLK
5
1D
100
AcDbEntity
100
AcDbBlockEnd
0
ENDSEC
0
SECTION
2
ENTITIES
0
LINE
5
100
100
AcDbEntity
8
0
100
AcDbLine
10
0
20
0
30
0
11
100
21
0
31
0
0
LINE
5
101
100
AcDbEntity
8
0
100
AcDbLine
10
0
20
40
30
0
11
-12.999999999999998
21
40
31
0
0
LINE
5
102
100
AcDbEntity
8
0
100
AcDbLine
10
100
20
40
30
0
11
113
21
40
31
0
0
SPLINE
5
103
100
AcDbEntity
8
0
100
AcDbSpline
70
1064
71
5
72
16
73
10
74
0
42
0.000000001
43
0.0000000001
44
0.0000000001
40
0
40
0
40
0
40
0
40
0
40
0
40
0.20000000000000001
40
0.40000000000000002
40
0.60000000000000009
40
0.80000000000000004
40
1
40
1
40
1
40
1
40
1
40
1
10
0
20
152
30
0
10
0.13917460174172572
20
146.93474681783988
30
0
10
0.34089142388114585
20
136.87227909596965
30
0
10
0.41366617019560392
20
121.9826076227402
30
0
10
0.019159623381021361
20
102.56612944478908
30
0
10
-1.6939947088805924
20
79.378736775634664
30
0
10
-4.655537792611983
20
62.241421505299776
30
0
10
-8.2211708005496131
20
50.582138021106296
30
0
10
-11.291425278442409
20
43.424714896213985
30
0
10
-12.999999999999998
20
40
30
0
0
SPLINE
5
104
100
AcDbEntity
8
0
100
AcDbSpline
70
1064
71
5
72
16
73
10
74
0
42
0.000000001
43
0.0000000001
44
0.0000000001
40
0
40
0
40
0
40
0
40
0
40
0
40
0.20000000000000001
40
0.40000000000000002
40
0.60000000000000009
40
0.80000000000000004
40
1
40
1
40
1
40
1
40
1
40
1
10
100
20
152
30
0
10
99.860825398258285
20
146.93474681783988
30
0
10
99.659108576118854
20
136.87227909596965
30
0
10
99.586333829804389
20
121.9826076227402
30
0
10
99.980840376618971
20
102.56612944478908
30
0
10
101.6939947088806
20
79.378736775634664
30
0
10
104.65553779261198
20
62.241421505299776
30
0
10
108.22117080054963
20
50.582138021106296
30
0
10
111.2914252784424
20
43.424714896213985
30
0
10
113
20
40
30
0
0
ARC
5
105
100
AcDbEntity
8
0
100
AcDbCircle
10
50.000000000000036
20
62.346153846153804
30
0
40
102.65384615384622
100
AcDbArc
50
60.851567603922554
51
119.14843239607751
0
CIRCLE
5
106
100
AcDbEntity
8
0
100
AcDbCircle
10
31.500000000000004
20
6.3749999999999982
30
0
40
1.5999999999999983
0
CIRCLE
5
107
100
AcDbEntity
8
0
100
AcDbCircle
10
31.500000000000004
20
43.374999999999993
30
0
40
1.6000000000000014
0
CIRCLE
5
108
100
AcDbEntity
8
0
100
AcDbCircle
10
68.5
20
43.374999999999993
30
0
40
1.5999999999999988
0
CIRCLE
5
109
100
AcDbEntity
8
0
100
AcDbCircle
10
68.5
20
6.3749999999999982
30
0
40
1.5999999999999996
0
CIRCLE
5
110
100
AcDbEntity
8
0
100
AcDbCircle
10
18.199999999999996
20
122.40000000000001
30
0
40
1.4999999999999964
0
CIRCLE
5
111
100
AcDbEntity
8
0
100
AcDbCircle
10
18.199999999999996
20
94.500000000000014
30
0
40
1.4999999999999978
0
CIRCLE
5
112
100
AcDbEntity
8
0
100
AcDbCircle
10
69
20
79.300000000000011
30
0
40
1.4999999999999958
0
CIRCLE
5
113
100
AcDbEntity
8
0
100
AcDbCircle
10
70.299999999999997
20
127.5
30
0
40
1.5000000000000031
0
LWPOLYLINE
5
114
100
AcDbEntity
8
0
100
AcDbPolyline
90
4
70
1
43
0.0
10
25.199999999999999
20
25.650000000000006
10
22.100000000000001
20
25.650000000000006
10
22.100000000000001
20
15.550000000000004
10
25.199999999999996
20
15.550000000000004
0
LINE
5
115
100
AcDbEntity
8
0
100
AcDbLine
10
0
20
25.650000000000006
30
0
11
3.1000000000000005
21
25.650000000000183
31
0
0
LINE
5
116
100
AcDbEntity
8
0
100
AcDbLine
10
3.1000000000000005
20
25.650000000000183
30
0
11
3.1000000000000005
21
15.550000000000177
31
0
0
LINE
5
117
100
AcDbEntity
8
0
100
AcDbLine
10
3.1000000000000005
20
15.550000000000177
30
0
11
0
21
15.550000000000001
31
0
0
LINE
5
118
100
AcDbEntity
8
0
100
AcDbLine
10
0
20
40
30
0
11
0
21
25.650000000000006
31
0
0
LINE
5
119
100
AcDbEntity
8
0
100
AcDbLine
10
0
20
15.550000000000001
30
0
11
0
21
0
31
0
0
LINE
5
120
100
AcDbEntity
8
0
100
AcDbLine
10
100
20
25.649999999999995
30
0
11
96.899999999999991
21
25.650000000000187
31
0
0
LINE
5
121
100
AcDbEntity
8
0
100
AcDbLine
10
96.899999999999991
20
25.650000000000187
30
0
11
96.899999999999991
21
15.550000000000184
31
0
0
LINE
5
122
100
AcDbEntity
8
0
100
AcDbLine
10
96.899999999999991
20
15.550000000000184
30
0
11
100
21
15.549999999999997
31
0
0
LWPOLYLINE
5
123
100
AcDbEntity
8
0
100
AcDbPolyline
90
4
70
1
43
0.0
10
74.800000000000011
20
15.550000000000004
10
74.800000000000011
20
25.650000000000009
10
77.900000000000006
20
25.650000000000009
10
77.900000000000006
20
15.550000000000004
0
LINE
5
124
100
AcDbEntity
8
0
100
AcDbLine
10
100
20
0
30
0
11
100
21
15.549999999999997
31
0
0
LINE
5
125
100
AcDbEntity
8
0
100
AcDbLine
10
100
20
25.649999999999995
30
0
11
100
21
40
31
0
0
LWPOLYLINE
5
126
100
AcDbEntity
8
0
100
AcDbPolyline
90
8
70
1
43
0.0
10
-94.044590109206922
20
22.774479852008188
10
-119.54459010920694
20
22.774479852008188
10
-119.54459010920695
20
12.774479852008183
10
-94.044590109206922
20
12.774479852008163
10
-94.044590109206922
20
8.774479852008163
10
-89.044590109206922
20
8.7744798520081382
10
-89.044590109206922
20
26.774479852008184
10
-94.044590109206922
20
26.774479852008184
0
LWPOLYLINE
5
127
100
AcDbEntity
8
0
100
AcDbPolyline
90
4
70
1
43
0.0
10
-113.54864093857063
20
16.271914576812158
10
-116.545679300297
20
16.27704953050916
42
-0.99999999999999989
10
-116.54053927984322
20
19.277045127204207
10
-113.54350091811675
20
19.271910173507202
42
-0.99999999999999989
0
LINE
5
128
100
AcDbEntity
8
0
100
AcDbLine
10
-116.54310929007011
20
17.777047328856682
30
0
11
-113.5460709283437
21
17.77191237515968
31
0
0
LINE
5
129
100
AcDbEntity
8
0
100
AcDbLine
10
-99.273003752409039
20
16.283371716833706
30
0
11
-95.831644438585073
21
16.265627863810266
31
0
0
ARC
5
130
100
AcDbEntity
8
0
100
AcDbCircle
10
-95.823910452294911
20
17.765607925496454
30
0
40
1.5000000000000102
100
AcDbArc
50
-90.295417824411885
51
89.704582175588641
0
LINE
5
131
100
AcDbEntity
8
0
100
AcDbLine
10
-95.816176466004762
20
19.265587987182638
30
0
11
-99.257535779828672
21
19.283331840206078
31
0
0
ARC
5
132
100
AcDbEntity
8
0
100
AcDbCircle
10
-99.265269766118905
20
17.78335177851989
30
0
40
1.5000000000000104
100
AcDbArc
50
89.704582175585386
51
269.70458217558917
0
LINE
5
133
100
AcDbEntity
8
0
100
AcDbLine
10
-99.265269766118905
20
17.78335177851989
30
0
11
-95.823910452294911
21
17.765607925496454
31
0
0
ARC
5
134
100
AcDbEntity
8
0
100
AcDbCircle
10
-99.168040639982223
20
45.984979613025423
30
0
40
1.5000000000000084
100
AcDbArc
50
89.565685559411094
51
269.56568555941271
0
ARC
5
135
100
AcDbEntity
8
0
100
AcDbCircle
10
-113.45585970569788
20
45.966433716685991
30
0
40
1.4999999999999811
100
AcDbArc
50
-90.212254949269195
51
89.787745050730791
0
ARC
5
136
100
AcDbEntity
8
0
100
AcDbCircle
10
-116.45064902801317
20
45.977528107389034
30
0
40
1.4999999999999811
100
AcDbArc
50
89.787745050732411
51
269.78774505073079
0
ARC
5
137
100
AcDbEntity
8
0
100
AcDbCircle
10
-95.738468093728841
20
45.958982211049609
30
0
40
1.5000000000000171
100
AcDbArc
50
-90.434314440588381
51
89.565685559412728
0
LWPOLYLINE
5
138
100
AcDbEntity
8
0
100
AcDbPolyline
90
8
70
1
43
0.0
10
-88.953254366855518
20
54.97198091203753
10
-88.953254366855518
20
36.971980912037466
10
-93.953254366855518
20
36.971980912037509
10
-93.953254366855518
20
40.971980912037502
10
-119.45325436685552
20
40.971980912037523
10
-119.45325436685552
20
50.971980912037523
10
-93.953254366855518
20
50.971980912037523
10
-93.953254366855518
20
54.97198091203753
0
LINE
5
139
100
AcDbEntity
8
0
100
AcDbLine
10
-116.45064902801317
20
45.977528107389034
30
0
11
-113.45585970569788
21
45.966433716685991
31
0
0
LINE
5
140
100
AcDbEntity
8
0
100
AcDbLine
10
-113.45030289683027
20
47.466423423942416
30
0
11
-116.44509221914561
21
47.477517814645438
31
0
0
LINE
5
141
100
AcDbEntity
8
0
100
AcDbLine
10
-116.45620583688078
20
44.477538400132623
30
0
11
-113.46141651456549
21
44.466444009429587
31
0
0
LINE
5
142
100
AcDbEntity
8
0
100
AcDbLine
10
-99.168040639982223
20
45.984979613025423
30
0
11
-95.738468093728841
21
45.958982211049609
31
0
0
LINE
5
143
100
AcDbEntity
8
0
100
AcDbLine
10
-99.179410856559116
20
44.485022707586133
30
0
11
-95.749838310305762
21
44.459025305610311
31
0
0
LINE
5
144
100
AcDbEntity
8
0
100
AcDbLine
10
-95.727097877151948
20
47.458939116488914
30
0
11
-99.156670423405288
21
47.484936518464721
31
0
0
LWPOLYLINE
5
145
100
AcDbEntity
8
0
100
AcDbPolyline
90
8
70
1
43
0.0
10
-88.989102895473479
20
65.50523674217024
10
-93.989102895473479
20
65.505236742170268
10
-93.989102895473479
20
69.505236742170268
10
-119.48910289547349
20
69.505236742170297
10
-119.48910289547349
20
79.505236742170297
10
-93.989102895473479
20
79.505236742170297
10
-93.989102895473479
20
83.505236742170297
10
-88.989102895473479
20
83.505236742170297
0
ARC
5
146
100
AcDbEntity
8
0
100
AcDbCircle
10
-95.777705435408734
20
74.490012959193464
30
0
40
1.4999999999999989
100
AcDbArc
50
-90.509662732853954
51
89.490337267146032
0
LWPOLYLINE
5
147
100
AcDbEntity
8
0
100
AcDbPolyline
90
4
70
1
43
0.0
10
-116.49446141585548
20
73.012625986397623
42
-0.99999999999999989
10
-116.47969952178245
20
76.012589667258354
10
-113.48374437509148
20
75.997847497942942
42
-0.99999999999999989
10
-113.49850626916461
20
72.997883817082197
0
LINE
5
148
100
AcDbEntity
8
0
100
AcDbLine
10
-95.76436267222627
20
75.989953614909766
30
0
11
-99.187157592355845
21
76.020401180863374
31
0
0
ARC
5
149
100
AcDbEntity
8
0
100
AcDbCircle
10
-99.200500355538267
20
74.520460525147058
30
0
40
1.5000000000000075
100
AcDbArc
50
89.490337267147666
51
269.49033726714549
0
LINE
5
150
100
AcDbEntity
8
0
100
AcDbLine
10
-116.48708046881896
20
74.512607826827988
30
0
11
-113.49112532212803
21
74.497865657512563
31
0
0
LINE
5
151
100
AcDbEntity
8
0
100
AcDbLine
10
-99.213843118720746
20
73.020519869430785
30
0
11
-95.791048198591199
21
72.990072303477149
31
0
0
LINE
5
152
100
AcDbEntity
8
0
100
AcDbLine
10
-99.200500355538267
20
74.520460525147058
30
0
11
-95.777705435408734
21
74.490012959193464
31
0
0
ARC
5
153
100
AcDbEntity
8
0
100
AcDbCircle
10
-113.54581081745691
20
17.780848955992383
30
0
40
1.5000000000000036
100
AcDbArc
50
-90.1027517659968
51
89.897248234003186
0
LWPOLYLINE
5
154
100
AcDbEntity
8
0
100
AcDbPolyline
90
8
70
1
43
0.0
10
-94.043871102344781
20
22.783535515214851
10
-119.54387110234478
20
22.783535515214851
10
-119.54387110234477
20
12.783535515214853
10
-94.043871102344781
20
12.783535515214833
10
-94.043871102344781
20
8.7835355152148313
10
-89.043871102344781
20
8.7835355152148065
10
-89.043871102344781
20
26.783535515214851
10
-94.043871102344781
20
26.783535515214851
0
LWPOLYLINE
5
155
100
AcDbEntity
8
0
100
AcDbPolyline
90
4
70
1
43
0.0
10
-95.831601352731383
20
16.274532741963359
10
-99.271877878344753
20
16.292579564416847
42
-0.99999999999999989
10
-99.256140851958094
20
19.292538288466336
10
-95.815864326344752
20
19.274491466012847
42
-0.99999999999999989
0
ARC
5
156
100
AcDbEntity
8
0
100
AcDbCircle
10
-116.54193138723265
20
17.786222074437337
30
0
40
1.5000000000000058
100
AcDbArc
50
89.89724823400482
51
269.89724823400314
0
LINE
5
157
100
AcDbEntity
8
0
100
AcDbLine
10
-99.264009365151423
20
17.792558926441593
30
0
11
-95.823732839538067
21
17.774512103988101
31
0
0
LINE
5
158
100
AcDbEntity
8
0
100
AcDbLine
10
-116.54193138723265
20
17.786222074437337
30
0
11
-113.54581081745691
21
17.780848955992383
31
0
0
LINE
5
159
100
AcDbEntity
8
0
100
AcDbLine
10
-113.5431207839555
20
19.280846543897031
30
0
11
-116.53924135373128
21
19.286219662341992
31
0
0
LINE
5
160
100
AcDbEntity
8
0
100
AcDbLine
10
-116.54462142073406
20
16.286224486532689
30
0
11
-113.54850085095832
21
16.280851368087731
31
0
0
ARC
5
161
100
AcDbEntity
8
0
100
AcDbCircle
10
-113.06863312992223
20
102.31599354950185
30
0
40
1.50000000000001
100
AcDbArc
50
-90.301615683990221
51
89.698384316009239
0
LWPOLYLINE
5
162
100
AcDbEntity
8
0
100
AcDbPolyline
90
8
70
1
43
0.0
10
-93.569263912987495
20
107.32389322317481
10
-119.06926391298747
20
107.32389322317481
10
-119.06926391298745
20
97.323893223174807
10
-93.569263912987495
20
97.32389322317475
10
-93.569263912987495
20
93.32389322317475
10
-88.569263912987495
20
93.323893223174736
10
-88.569263912987495
20
111.32389322317481
10
-93.569263912987495
20
111.32389322317481
0
LINE
5
163
100
AcDbEntity
8
0
100
AcDbLine
10
-98.795274265410669
20
100.83957664646675
30
0
11
-95.370620460648681
21
100.80833462701665
31
0
0
LINE
5
164
100
AcDbEntity
8
0
100
AcDbLine
10
-95.343253560564335
20
103.80820979988292
30
0
11
-98.76790736532628
21
103.83945181933298
31
0
0
ARC
5
165
100
AcDbEntity
8
0
100
AcDbCircle
10
-116.06989469605273
20
102.33179289684777
30
0
40
1.4999999999999922
100
AcDbArc
50
89.698384316009225
51
269.69838431600868
0
LINE
5
166
100
AcDbEntity
8
0
100
AcDbLine
10
-98.781590815368475
20
102.33951423289986
30
0
11
-95.356937010606501
21
102.30827221344978
31
0
0
ARC
5
167
100
AcDbEntity
8
0
100
AcDbCircle
10
-95.356937010606501
20
102.30827221344978
30
0
40
1.4999999999999567
100
AcDbArc
50
-90.522676540440628
51
89.477323459559926
0
ARC
5
168
100
AcDbEntity
8
0
100
AcDbCircle
10
-98.781590815368475
20
102.33951423289986
30
0
40
1.4999999999999567
100
AcDbArc
50
89.477323459558832
51
269.47732345955882
0
LINE
5
169
100
AcDbEntity
8
0
100
AcDbLine
10
-116.06989469605273
20
102.33179289684777
30
0
11
-113.06863312992223
21
102.31599354950185
31
0
0
LINE
5
170
100
AcDbEntity
8
0
100
AcDbLine
10
-113.06073688625008
20
103.8159727658032
30
0
11
-116.06199845238058
21
103.83177211314907
31
0
0
LINE
5
171
100
AcDbEntity
8
0
100
AcDbLine
10
-116.07779093972489
20
100.83181368054646
30
0
11
-113.07652937359437
21
100.81601433320054
31
0
0
LWPOLYLINE
5
172
100
AcDbEntity
8
0
100
AcDbPolyline
90
20
70
1
43
0.0
10
-40.897390182998393
20
111.67438476025606
10
-65.897390182998393
20
111.67438476025607
10
-65.897390182998393
20
109.67438476025607
10
-68.897390182998379
20
109.67438476025607
10
-68.897390182998379
20
101.67438476025607
10
-65.89739018299835
20
101.67438476025612
10
-65.897390182998393
20
21.673555795370408
10
-68.897390182998421
20
21.673555795370461
10
-68.897390182998421
20
13.67355579537046
10
-65.897390182998393
20
13.673555795370458
10
-65.897390182998393
20
11.674384760256071
10
-40.897390182998443
20
11.674384760256071
10
-40.897390182998443
20
13.673555795370412
10
-37.89739018299845
20
13.67355579537044
10
-37.89739018299845
20
21.673555795370447
10
-40.897390182998436
20
21.673555795370358
10
-40.897390182998407
20
101.67438476025615
10
-37.897390182998407
20
101.67438476025606
10
-37.897390182998407
20
109.67438476025606
10
-40.897390182998393
20
109.67438476025609
0
LWPOLYLINE
5
173
100
AcDbEntity
8
0
100
AcDbPolyline
90
4
70
1
43
0.0
10
98.100000000000009
20
62
10
90
20
62
10
90
20
65.099999999999994
10
98.100000000000009
20
65.099999999999994
0
LINE
5
174
100
AcDbEntity
8
0
100
AcDbLine
10
-45.3973901829984
20
72.173970277813254
30
0
11
-45.3973901829984
21
51.17397027781324
31
0
0
CIRCLE
5
175
100
AcDbEntity
8
0
100
AcDbCircle
10
-59.397390182998386
20
69.923970277813225
30
0
40
1.4999999999999944
0
CIRCLE
5
176
100
AcDbEntity
8
0
100
AcDbCircle
10
-59.397390182998393
20
53.423970277813233
30
0
40
1.4999999999999876
0
LWPOLYLINE
5
177
100
AcDbEntity
8
0
100
AcDbPolyline
90
4
70
1
43
0.0
10
-48.397390182998393
20
72.173970277813254
10
-45.3973901829984
20
72.173970277813254
10
-45.3973901829984
20
51.175379518118689
10
-48.397390182998393
20
51.175379518118689
0
CIRCLE
5
178
100
AcDbEntity
8
0
100
AcDbCircle
10
-53.397390182998386
20
87.17397027781324
30
0
40
3.4999999999999991
0
CIRCLE
5
179
100
AcDbEntity
8
0
100
AcDbCircle
10
-53.397390182998393
20
36.17397027781324
30
0
40
3.4999999999999867
0
LWPOLYLINE
5
180
100
AcDbEntity
8
0
100
AcDbPolyline
90
4
70
1
43
0.0
10
1.899999999999995
20
65.099999999999994
10
1.899999999999995
20
62.000000000000014
10
10
20
62.000000000000014
10
10
20
65.099999999999994
0
CIRCLE
5
181
100
AcDbEntity
8
0
100
AcDbCircle
10
8.5753987411192121
20
70.099999999999994
30
0
40
1.5000000000000002
0
CIRCLE
5
182
100
AcDbEntity
8
0
100
AcDbCircle
10
8.5753987411191552
20
148
30
0
40
1.5000000000000004
0
CIRCLE
5
183
100
AcDbEntity
8
0
100
AcDbCircle
10
91.424601258880841
20
148
30
0
40
1.5000000000000004
0
CIRCLE
5
184
100
AcDbEntity
8
0
100
AcDbCircle
10
91.424601258880799
20
70.100000000000009
30
0
40
1.5000000000000002
0
CIRCLE
5
185
100
AcDbEntity
8
0
100
AcDbCircle
10
76.5
20
43.75
30
0
40
2.4999999999999964
0
CIRCLE
5
186
100
AcDbEntity
8
0
100
AcDbCircle
10
23.500000000000007
20
43.75
30
0
40
2.4999999999999996
0
LWPOLYLINE
5
187
100
AcDbEntity
8
0
100
AcDbPolyline
90
4
70
1
43
0.0
10
54.000000804662704
20
51.25
10
45.999999195337296
20
51.25
42
-0.99999999999999989
10
45.999999195337296
20
56.25
10
54.000000804662704
20
56.25
42
-0.99999999999999989
0
LINE
5
188
100
AcDbEntity
8
0
100
AcDbLine
10
45.999999195337296
20
53.75
30
0
11
54.000000804662704
21
53.75
31
0
0
CIRCLE
5
189
100
AcDbEntity
8
0
100
AcDbCircle
10
89.299999999999997
20
110
30
0
40
3.9999999999999964
0
CIRCLE
5
190
100
AcDbEntity
8
0
100
AcDbCircle
10
24.199999999999996
20
137
30
0
40
2.5
0
CIRCLE
5
191
100
AcDbEntity
8
0
100
AcDbCircle
10
41.199999999999989
20
137
30
0
40
2.5
0
CIRCLE
5
192
100
AcDbEntity
8
0
100
AcDbCircle
10
58.199999999999996
20
137
30
0
40
2.5
0
CIRCLE
5
193
100
AcDbEntity
8
0
100
AcDbCircle
10
75.199999999999989
20
137
30
0
40
2.4999999999999951
0
CIRCLE
5
194
100
AcDbEntity
8
0
100
AcDbCircle
10
41.199999999999989
20
69.700000000000017
30
0
40
2.5
0
CIRCLE
5
195
100
AcDbEntity
8
0
100
AcDbCircle
10
24.199999999999996
20
69.700000000000017
30
0
40
2.5
0
CIRCLE
5
196
100
AcDbEntity
8
0
100
AcDbCircle
10
58.199999999999996
20
69.700000000000017
30
0
40
2.5
0
CIRCLE
5
197
100
AcDbEntity
8
0
100
AcDbCircle
10
75.199999999999989
20
69.700000000000017
30
0
40
2.4999999999999951
0
LWPOLYLINE
5
198
100
AcDbEntity
8
0
100
AcDbPolyline
90
4
70
1
43
0.0
10
217.89999999999998
20
15.550000000000004
10
214.80000000000001
20
15.550000000000004
10
214.80000000000001
20
25.650000000000006
10
217.89999999999998
20
25.650000000000006
0
CIRCLE
5
199
100
AcDbEntity
8
0
100
AcDbCircle
10
148.57539874111916
20
148
30
0
40
1.5000000000000004
0
LINE
5
200
100
AcDbEntity
8
0
100
AcDbLine
10
239.99999999999855
20
4.8091485010906811e-32
30
0
11
239.99999999999855
21
15.550000000000001
31
0
0
LINE
5
201
100
AcDbEntity
8
0
100
AcDbLine
10
143.09999999999999
20
15.550000000000177
30
0
11
140
21
15.550000000000001
31
0
0
CIRCLE
5
202
100
AcDbEntity
8
0
100
AcDbCircle
10
171.5
20
43.374999999999993
30
0
40
1.6000000000000014
0
LINE
5
203
100
AcDbEntity
8
0
100
AcDbLine
10
140
20
15.550000000000001
30
0
11
140.00000000000145
21
-4.8091485010906811e-32
31
0
0
LWPOLYLINE
5
204
100
AcDbEntity
8
0
100
AcDbPolyline
90
4
70
1
43
0.0
10
238.10000000000002
20
65.099999999999994
10
238.10000000000002
20
62
10
230
20
62
10
230
20
65.099999999999994
0
LWPOLYLINE
5
205
100
AcDbEntity
8
0
100
AcDbPolyline
90
4
70
1
43
0.0
10
162.10000000000002
20
25.650000000000006
10
162.10000000000002
20
15.550000000000004
10
165.19999999999999
20
15.550000000000004
10
165.19999999999999
20
25.650000000000006
0
CIRCLE
5
206
100
AcDbEntity
8
0
100
AcDbCircle
10
208.5
20
6.3749999999999982
30
0
40
1.5999999999999996
0
CIRCLE
5
207
100
AcDbEntity
8
0
100
AcDbCircle
10
231.42460125888084
20
148
30
0
40
1.5000000000000004
0
CIRCLE
5
208
100
AcDbEntity
8
0
100
AcDbCircle
10
163.5
20
43.75
30
0
40
2.4999999999999996
0
CIRCLE
5
209
100
AcDbEntity
8
0
100
AcDbCircle
10
216.5
20
43.75
30
0
40
2.4999999999999964
0
LINE
5
210
100
AcDbEntity
8
0
100
AcDbLine
10
143.10000000000292
20
25.6499999999895
30
0
11
143.09999999999999
21
15.550000000000177
31
0
0
LWPOLYLINE
5
211
100
AcDbEntity
8
0
100
AcDbPolyline
90
4
70
1
43
0.0
10
150
20
65.099999999999994
10
141.89999999999998
20
65.099999999999994
10
141.89999999999998
20
62
10
150
20
62
0
LINE
5
212
100
AcDbEntity
8
0
100
AcDbLine
10
140
20
40.000000000000007
30
0
11
127
21
40.000000000000007
31
0
0
LWPOLYLINE
5
213
100
AcDbEntity
8
0
100
AcDbPolyline
90
4
70
1
43
0.0
10
194.0000008046627
20
51.25
10
185.9999991953373
20
51.25
42
-0.99999999999999989
10
185.9999991953373
20
56.25
10
194.0000008046627
20
56.25
42
-0.99999999999999989
0
LINE
5
214
100
AcDbEntity
8
0
100
AcDbLine
10
140
20
40.000000000000007
30
0
11
140.0000000000029
21
25.649999999989678
31
0
0
LINE
5
215
100
AcDbEntity
8
0
100
AcDbLine
10
239.99999999999855
20
25.650000000000006
30
0
11
239.99999999999855
21
40
31
0
0
CIRCLE
5
216
100
AcDbEntity
8
0
100
AcDbCircle
10
208.5
20
43.374999999999993
30
0
40
1.5999999999999988
0
LINE
5
217
100
AcDbEntity
8
0
100
AcDbLine
10
236.89999999999853
20
15.550000000000177
30
0
11
239.99999999999855
21
15.550000000000001
31
0
0
LINE
5
218
100
AcDbEntity
8
0
100
AcDbLine
10
140.00000000000145
20
-4.8091485010906811e-32
30
0
11
239.99999999999855
21
4.8091485010906811e-32
31
0
0
LINE
5
219
100
AcDbEntity
8
0
100
AcDbLine
10
140.0000000000029
20
25.649999999989678
30
0
11
143.10000000000292
21
25.6499999999895
31
0
0
LINE
5
220
100
AcDbEntity
8
0
100
AcDbLine
10
239.99999999999855
20
25.650000000000006
30
0
11
236.9000000000035
21
25.649999999991199
31
0
0
SPLINE
5
221
100
AcDbEntity
8
0
100
AcDbSpline
70
1064
71
5
72
16
73
10
74
0
42
0.000000001
43
0.0000000001
44
0.0000000001
40
0
40
0
40
0
40
0
40
0
40
0
40
0.20000000000000001
40
0.40000000000000002
40
0.60000000000000009
40
0.80000000000000004
40
1
40
1
40
1
40
1
40
1
40
1
10
140
20
152
30
0
10
140.13917460174173
20
146.93474681783988
30
0
10
140.34089142388109
20
136.87227909597001
30
0
10
140.41366617019602
20
121.98260762274251
30
0
10
140.01915962338163
20
102.56612944479265
30
0
10
138.30600529111996
20
79.378736775637705
30
0
10
135.34446220738826
20
62.241421505301091
30
0
10
131.77882919945046
20
50.582138021106516
30
0
10
128.7085747215576
20
43.424714896213992
30
0
10
127
20
40.000000000000007
30
0
0
SPLINE
5
222
100
AcDbEntity
8
0
100
AcDbSpline
70
1064
71
5
72
16
73
10
74
0
42
0.000000001
43
0.0000000001
44
0.0000000001
40
0
40
0
40
0
40
0
40
0
40
0
40
0.20000000000000001
40
0.40000000000000002
40
0.60000000000000009
40
0.80000000000000004
40
1
40
1
40
1
40
1
40
1
40
1
10
240
20
152
30
0
10
239.86082539825827
20
146.93474681783988
30
0
10
239.65910857611885
20
136.87227909596996
30
0
10
239.58633382980554
20
121.98260762274238
30
0
10
239.98084037661997
20
102.56612944479224
30
0
10
241.69399470888101
20
79.378736775637108
30
0
10
244.65553779261168
20
62.241421505300664
30
0
10
248.22117080054949
20
50.582138021106445
30
0
10
251.2914252784424
20
43.424714896213985
30
0
10
253
20
40
30
0
0
LINE
5
223
100
AcDbEntity
8
0
100
AcDbLine
10
236.9000000000035
20
25.649999999991199
30
0
11
236.89999999999853
21
15.550000000000177
31
0
0
LINE
5
224
100
AcDbEntity
8
0
100
AcDbLine
10
239.99999999999855
20
40
30
0
11
252.99999999999855
21
40
31
0
0
CIRCLE
5
225
100
AcDbEntity
8
0
100
AcDbCircle
10
171.5
20
6.3749999999999982
30
0
40
1.5999999999999983
0
ARC
5
226
100
AcDbEntity
8
0
100
AcDbCircle
10
190
20
62.346153846153825
30
0
40
102.65384615384617
100
AcDbArc
50
60.851567603922526
51
119.14843239607747
0
CIRCLE
5
227
100
AcDbEntity
8
0
100
AcDbCircle
10
231.42460125888078
20
70.099999999999994
30
0
40
1.5000000000000002
0
CIRCLE
5
228
100
AcDbEntity
8
0
100
AcDbCircle
10
148.57539874111922
20
70.099999999999994
30
0
40
1.5000000000000002
0
CIRCLE
5
229
100
AcDbEntity
8
0
100
AcDbCircle
10
50
20
152
30
0
40
1.5000000000000062
0
CIRCLE
5
230
100
AcDbEntity
8
0
100
AcDbCircle
10
190
20
152
30
0
40
1.5000000000000124
0
CIRCLE
5
231
100
AcDbEntity
8
0
100
AcDbCircle
10
165.50000000000782
20
131.00000225007534
30
0
40
1.5000000000000098
0
CIRCLE
5
232
100
AcDbEntity
8
0
100
AcDbCircle
10
165.50000000000782
20
73.000002250075312
30
0
40
1.4999999999999956
0
CIRCLE
5
233
100
AcDbEntity
8
0
100
AcDbCircle
10
214.50000000000782
20
73.000002250075312
30
0
40
1.5000000000000082
0
CIRCLE
5
234
100
AcDbEntity
8
0
100
AcDbCircle
10
214.50000000000782
20
131.00000225007534
30
0
40
1.5000000000000071
0
LWPOLYLINE
5
235
100
AcDbEntity
8
0
100
AcDbPolyline
90
4
70
1
43
0.0
10
160.50000000000782
20
129.00000192224979
10
155.50000000000782
20
129.00000192224979
10
155.50000000000782
20
74.000001922249794
10
160.50000000000782
20
74.000001922249794
0
LWPOLYLINE
5
236
100
AcDbEntity
8
0
100
AcDbPolyline
90
4
70
1
43
0.0
10
219.49999999999218
20
74.000001922249794
10
219.49999999999218
20
129.00000192224979
10
224.49999999999218
20
129.00000192224979
10
224.49999999999218
20
74.000001922249794
0
CIRCLE
5
237
100
AcDbEntity
8
0
100
AcDbCircle
10
168.50000000000784
20
106.00000225007534
30
0
40
2.500000000000008
0
CIRCLE
5
238
100
AcDbEntity
8
0
100
AcDbCircle
10
168.50000000000784
20
151.00000225007534
30
0
40
2.500000000000004
0
CIRCLE
5
239
100
AcDbEntity
8
0
100
AcDbCircle
10
211.49999999999216
20
151.00000225007534
30
0
40
2.500000000000004
0
CIRCLE
5
240
100
AcDbEntity
8
0
100
AcDbCircle
10
211.49999999999216
20
106.00000225007534
30
0
40
2.500000000000008
0
LWPOLYLINE
5
241
100
AcDbEntity
8
0
100
AcDbPolyline
90
4
70
1
43
0.0
10
-134.79074456358714
20
72.988919241591049
10
-138.47278479565796
20
73.021672931317198
42
-0.99999999999999989
10
-138.44609926929297
20
76.021554242749644
10
-134.76405903722221
20
75.988800553023694
42
-0.99999999999999989
0
LWPOLYLINE
5
242
100
AcDbEntity
8
0
100
AcDbPolyline
90
8
70
1
43
0.0
10
-132.69858293395404
20
107.32389322317482
10
-161.19858293395401
20
107.32389322317482
10
-161.19858293395399
20
97.323893223174821
10
-132.69858293395382
20
97.323893223174949
10
-132.69858293395384
20
93.323893223174949
10
-127.69858293395382
20
93.323893223174451
10
-127.69858293395403
20
111.32389322317482
10
-132.69858293395404
20
111.32389322317482
0
LINE
5
243
100
AcDbEntity
8
0
100
AcDbLine
10
-138.42698599799851
20
45.985962227606592
30
0
11
-134.73816077764556
21
45.957999596468547
31
0
0
LWPOLYLINE
5
244
100
AcDbEntity
8
0
100
AcDbPolyline
90
4
70
1
43
0.0
10
-153.61886583440554
20
73.0027604212992
10
-154.6327398925477
20
73.007749382180734
42
-0.99999999999999989
10
-154.61797799847457
20
76.00771306304145
10
-153.60410394033238
20
76.002724102159945
42
-0.99999999999999989
0
LWPOLYLINE
5
245
100
AcDbEntity
8
0
100
AcDbPolyline
90
8
70
1
43
0.0
10
-133.11842191644007
20
79.505236742170325
10
-161.61842191644007
20
79.505236742170325
10
-161.61842191644007
20
69.505236742170325
10
-133.11842191643998
20
69.50523674217041
10
-133.11842191643998
20
65.50523674217041
10
-128.11842191643996
20
65.505236742169629
10
-128.11842191644007
20
83.505236742170325
10
-133.11842191644007
20
83.505236742170325
0
ARC
5
246
100
AcDbEntity
8
0
100
AcDbCircle
10
-151.3042468347596
20
102.31128887435003
30
0
40
1.5000000000000278
100
AcDbArc
50
-90.301615683990789
51
89.698384316010305
0
LINE
5
247
100
AcDbEntity
8
0
100
AcDbLine
10
-154.62535894551115
20
74.507731222611099
30
0
11
-153.61148488736896
21
74.502742261729566
31
0
0
LINE
5
248
100
AcDbEntity
8
0
100
AcDbLine
10
-138.04053179528216
20
102.34069673250232
30
0
11
-134.35663407262595
21
102.30708971384738
31
0
0
LINE
5
249
100
AcDbEntity
8
0
100
AcDbLine
10
-156.09291903314843
20
102.33649757199964
30
0
11
-151.3042468347596
21
102.31128887435003
31
0
0
LWPOLYLINE
5
250
100
AcDbEntity
8
0
100
AcDbPolyline
90
4
70
1
43
0.0
10
-138.05421524532437
20
100.84075914606916
42
-0.99999999999999989
10
-138.02684834523998
20
103.84063431893549
10
-134.34295062258374
20
103.80702730028047
42
-0.99999999999999989
10
-134.37031752266816
20
100.8071521274143
0
LINE
5
251
100
AcDbEntity
8
0
100
AcDbLine
10
-156.10081527682058
20
100.83651835569836
30
0
11
-151.31214307843175
21
100.81130965804869
31
0
0
LINE
5
252
100
AcDbEntity
8
0
100
AcDbLine
10
-134.72679056106864
20
47.457956501907852
30
0
11
-138.41561578142159
21
47.485919133045876
31
0
0
LWPOLYLINE
5
253
100
AcDbEntity
8
0
100
AcDbPolyline
90
8
70
1
43
0.0
10
-128.08257338782204
20
36.971980912036493
10
-133.08257338782201
20
36.971980912037608
10
-133.08257338782201
20
40.971980912037615
10
-161.58257338782207
20
40.971980912037552
10
-161.58257338782207
20
50.971980912037552
10
-133.08257338782204
20
50.971980912037552
10
-133.08257338782204
20
54.971980912037559
10
-128.08257338782204
20
54.971980912037559
0
ARC
5
254
100
AcDbEntity
8
0
100
AcDbCircle
10
-134.73816077764556
20
45.957999596468547
30
0
40
1.5000000000000171
100
AcDbArc
50
-90.434314440587258
51
89.565685559411634
0
LINE
5
255
100
AcDbEntity
8
0
100
AcDbLine
10
-138.43835621457541
20
44.486005322167287
30
0
11
-134.74953099422245
21
44.458042691029249
31
0
0
LINE
5
256
100
AcDbEntity
8
0
100
AcDbLine
10
-138.45944203247547
20
74.521613587033414
30
0
11
-134.77740180040468
21
74.488859897307378
31
0
0
LINE
5
257
100
AcDbEntity
8
0
100
AcDbLine
10
-151.29635059108747
20
103.81126809065131
30
0
11
-156.08502278947628
21
103.8364767883009
31
0
0
ARC
5
258
100
AcDbEntity
8
0
100
AcDbCircle
10
-138.42698599799851
20
45.985962227606592
30
0
40
1.4999999999999993
100
AcDbArc
50
89.565685559411634
51
269.56568555941271
0
ARC
5
259
100
AcDbEntity
8
0
100
AcDbCircle
10
-156.09291903314843
20
102.33649757199964
30
0
40
1.4999999999999567
100
AcDbArc
50
89.698384316009225
51
269.6983843160092
0
LWPOLYLINE
5
260
100
AcDbEntity
8
0
100
AcDbPolyline
90
4
70
1
43
0.0
10
-154.99826654542397
20
47.475383449367492
10
-153.15576661248497
20
47.468557789220384
42
-0.99999999999999989
10
-153.16688023022016
20
44.46857837470759
10
-155.00938016315916
20
44.475404034854719
42
-0.99999999999999989
0
LINE
5
261
100
AcDbEntity
8
0
100
AcDbLine
10
-155.00382335429157
20
45.975393742111102
30
0
11
-153.16132342135256
21
45.968568081963987
31
0
0
LWPOLYLINE
5
262
100
AcDbEntity
8
0
100
AcDbPolyline
90
12
70
1
43
0.0
10
354.8378300392468
20
190
10
354.8378300392468
20
1.0294482029377288e-14
10
342.98783003924677
20
1.7763568394002505e-14
10
342.98783003924677
20
3.1000000000000272
10
332.88783003924675
20
3.1000000000000254
10
332.88783003924675
20
2.4717643101126155e-14
10
279.8378300392468
20
0
10
279.8378300392468
20
190
10
332.88783003924675
20
190
10
332.88783003924675
20
186.90000000000001
10
342.98783003924677
20
186.90000000000001
10
342.98783003924677
20
190
0
CIRCLE
5
263
100
AcDbEntity
8
0
100
AcDbCircle
10
346.8378300392468
20
35.000000000000021
30
0
40
2.9999999999999809
0
CIRCLE
5
264
100
AcDbEntity
8
0
100
AcDbCircle
10
287.8378300392468
20
8.0000000000000195
30
0
40
3.0000000000000133
0
CIRCLE
5
265
100
AcDbEntity
8
0
100
AcDbCircle
10
287.8378300392468
20
182
30
0
40
3.0000000000000124
0
CIRCLE
5
266
100
AcDbEntity
8
0
100
AcDbCircle
10
346.8378300392468
20
155
30
0
40
2.9999999999999987
0
CIRCLE
5
267
100
AcDbEntity
8
0
100
AcDbCircle
10
337.63783003924681
20
141.64425373727474
30
0
40
1.5000000000000031
0
CIRCLE
5
268
100
AcDbEntity
8
0
100
AcDbCircle
10
285.53783003924678
20
136.54425373727474
30
0
40
1.4999999999999964
0
CIRCLE
5
269
100
AcDbEntity
8
0
100
AcDbCircle
10
285.53783003924678
20
108.64425373727472
30
0
40
1.4999999999999978
0
CIRCLE
5
270
100
AcDbEntity
8
0
100
AcDbCircle
10
336.3378300392468
20
93.444253737274735
30
0
40
1.4999999999999958
0
CIRCLE
5
271
100
AcDbEntity
8
0
100
AcDbCircle
10
335.8378300392468
20
78.930172016806864
30
0
40
1.5999999999999988
0
CIRCLE
5
272
100
AcDbEntity
8
0
100
AcDbCircle
10
298.8378300392468
20
78.930172016806864
30
0
40
1.6000000000000014
0
CIRCLE
5
273
100
AcDbEntity
8
0
100
AcDbCircle
10
335.8378300392468
20
41.930172016806878
30
0
40
1.5999999999999996
0
CIRCLE
5
274
100
AcDbEntity
8
0
100
AcDbCircle
10
298.8378300392468
20
41.930172016806878
30
0
40
1.5999999999999983
0
LWPOLYLINE
5
275
100
AcDbEntity
8
0
100
AcDbPolyline
90
4
70
1
43
0.0
10
342.98783003924677
20
25.200000000000024
10
332.88783003924675
20
25.200000000000024
10
332.88783003924675
20
22.100000000000023
10
342.98783003924677
20
22.100000000000023
0
LWPOLYLINE
5
276
100
AcDbEntity
8
0
100
AcDbPolyline
90
4
70
1
43
0.0
10
332.88783003924675
20
167.89999999999998
10
342.98783003924677
20
167.89999999999998
10
342.98783003924677
20
164.80000000000001
10
332.88783003924675
20
164.80000000000001
0
CIRCLE
5
277
100
AcDbEntity
8
0
100
AcDbCircle
10
317.3378300392468
20
158.33611135111136
30
0
40
4.9999999999999885
0
CIRCLE
5
278
100
AcDbEntity
8
0
100
AcDbCircle
10
317.3378300392468
20
86.249572838972384
30
0
40
2.0000000000000169
0
CIRCLE
5
279
100
AcDbEntity
8
0
100
AcDbCircle
10
317.3378300392468
20
32.401300342756151
30
0
40
2.5000000000000155
0
CIRCLE
5
280
100
AcDbEntity
8
0
100
AcDbCircle
10
345.55433210095748
20
60.430172016806893
30
0
40
2.5
0
CIRCLE
5
281
100
AcDbEntity
8
0
100
AcDbCircle
10
336.48493941977608
20
86.285215515909698
30
0
40
2.0000000000000191
0
CIRCLE
5
282
100
AcDbEntity
8
0
100
AcDbCircle
10
336.02378385971599
20
32.791170548941366
30
0
40
2.0000000000000284
0
CIRCLE
5
283
100
AcDbEntity
8
0
100
AcDbCircle
10
295.8378300392468
20
30.639111268661033
30
0
40
2.0000000000000031
0
CIRCLE
5
284
100
AcDbEntity
8
0
100
AcDbCircle
10
295.13465753438965
20
86.900089595989783
30
0
40
1.9999999999999929
0
CIRCLE
5
285
100
AcDbEntity
8
0
100
AcDbCircle
10
378
20
182
30
0
40
3.0000000000000124
0
LWPOLYLINE
5
286
100
AcDbEntity
8
0
100
AcDbPolyline
90
8
70
1
43
0.0
10
433.14999999999998
20
190
10
445
20
190
10
445
20
3.944304526105059e-30
10
433.14999999999998
20
7.6524327413280993e-15
10
423.05000000000001
20
8.454474590267456e-14
10
370
20
0
10
370
20
190
10
423.05000000000001
20
190
0
CIRCLE
5
287
100
AcDbEntity
8
0
100
AcDbCircle
10
437
20
154.99999999999997
30
0
40
2.9999999999999987
0
CIRCLE
5
288
100
AcDbEntity
8
0
100
AcDbCircle
10
378
20
8.0000000000000089
30
0
40
3.0000000000000133
0
CIRCLE
5
289
100
AcDbEntity
8
0
100
AcDbCircle
10
437
20
35.000000000000014
30
0
40
2.9999999999999809
0
LWPOLYLINE
5
290
100
AcDbEntity
8
0
100
AcDbPolyline
90
8
70
1
43
0.0
10
535
20
190
10
535
20
3.944304526105059e-30
10
523.14999999999998
20
7.6524327413280993e-15
10
513.04999999999995
20
8.454474590267456e-14
10
460
20
0
10
460
20
190
10
513.04999999999995
20
190
10
523.14999999999998
20
190
0
CIRCLE
5
291
100
AcDbEntity
8
0
100
AcDbCircle
10
527
20
35.000000000000014
30
0
40
2.9999999999999809
0
CIRCLE
5
292
100
AcDbEntity
8
0
100
AcDbCircle
10
468
20
182
30
0
40
3.0000000000000124
0
CIRCLE
5
293
100
AcDbEntity
8
0
100
AcDbCircle
10
468
20
8.0000000000000089
30
0
40
3.0000000000000133
0
CIRCLE
5
294
100
AcDbEntity
8
0
100
AcDbCircle
10
527
20
154.99999999999997
30
0
40
2.9999999999999987
0
CIRCLE
5
295
100
AcDbEntity
8
0
100
AcDbCircle
10
401.26649657266887
20
86.780991271627187
30
0
40
1.4999999999999876
0
LINE
5
296
100
AcDbEntity
8
0
100
AcDbLine
10
415.26649657266887
20
105.53099127162723
30
0
11
415.26649657266887
21
84.530991271627215
31
0
0
CIRCLE
5
297
100
AcDbEntity
8
0
100
AcDbCircle
10
401.26649657266887
20
103.28099127162722
30
0
40
1.4999999999999944
0
LWPOLYLINE
5
298
100
AcDbEntity
8
0
100
AcDbPolyline
90
4
70
1
43
0.0
10
412.26649657266887
20
105.53099127162723
10
415.26649657266887
20
105.53099127162723
10
415.26649657266887
20
84.530991271627215
10
412.26649657266887
20
84.530991271627215
0
LINE
5
299
100
AcDbEntity
8
0
100
AcDbLine
10
-134.72679056106864
20
23.26045544187954
30
0
11
-138.41561578142159
21
23.288418073017567
31
0
0
LINE
5
300
100
AcDbEntity
8
0
100
AcDbLine
10
-138.42698599799851
20
21.788461167578284
30
0
11
-134.73816077764556
21
21.760498536440238
31
0
0
LWPOLYLINE
5
301
100
AcDbEntity
8
0
100
AcDbPolyline
90
8
70
1
43
0.0
10
-128.08257338782204
20
30.774479852009247
10
-133.08257338782204
20
30.774479852009257
10
-133.08257338782204
20
26.774479852009243
10
-161.58257338782207
20
26.774479852009243
10
-161.58257338782207
20
16.774479852009243
10
-133.08257338782226
20
16.774479852008433
10
-133.08257338782226
20
12.774479852008426
10
-128.08257338783039
20
12.774479851979251
0
LINE
5
302
100
AcDbEntity
8
0
100
AcDbLine
10
-138.43835621457541
20
20.288504262138972
30
0
11
-134.74953099422245
21
20.260541631000937
31
0
0
LWPOLYLINE
5
303
100
AcDbEntity
8
0
100
AcDbPolyline
90
4
70
1
43
0.0
10
-153.15576661248497
20
23.271056729192068
42
-0.99999999999999989
10
-153.16688023022016
20
20.271077314679282
10
-155.00938016315916
20
20.277902974826407
42
-0.99999999999999989
10
-154.99826654542397
20
23.27788238933918
0
LINE
5
304
100
AcDbEntity
8
0
100
AcDbLine
10
-155.00382335429157
20
21.777892682082793
30
0
11
-153.16132342135256
21
21.771067021935675
31
0
0
ARC
5
305
100
AcDbEntity
8
0
100
AcDbCircle
10
-134.73816077764556
20
21.760498536440238
30
0
40
1.5000000000000171
100
AcDbArc
50
-90.434314440587258
51
89.565685559411634
0
ARC
5
306
100
AcDbEntity
8
0
100
AcDbCircle
10
-138.42698599799851
20
21.788461167578284
30
0
40
1.4999999999999993
100
AcDbArc
50
89.565685559411634
51
269.56568555941271
0
ENDSEC
0
SECTION
2
OBJECTS
0
DICTIONARY
5
C
100
AcDbDictionary
3
ACAD_GROUP
350
D
3
ACAD_MLINESTYLE
350
17
0
DICTIONARY
5
D
100
AcDbDictionary
0
DICTIONARY
5
1A
330
C
100
AcDbDictionary
0
DICTIONARY
5
17
100
AcDbDictionary
0
ENDSEC
0
EOF
