0
SECTION
2
HEADER
9
$INSUNITS
70
4
9
$ACADVER
1
AC1014
9
$HANDSEED
5
FFFF
0
ENDSEC
0
SECTION
2
TABLES
0
TABLE
2
VPORT
5
8
100
AcDbSymbolTable
0
ENDTAB
0
TABLE
2
LTYPE
5
5
100
AcDbSymbolTable
0
LTYPE
5
14
100
AcDbSymbolTableRecord
100
AcDbLinetypeTableRecord
2
BYBLOCK
70
0
0
LTYPE
5
15
100
AcDbSymbolTableRecord
100
AcDbLinetypeTableRecord
2
BYLAYER
70
0
0
ENDTAB
0
TABLE
2
LAYER
5
2
100
AcDbSymbolTable
70
2
0
LAYER
5
50
100
AcDbSymbolTableRecord
100
AcDbLayerTableRecord
2
0
70
0
6
CONTINUOUS
0
ENDTAB
0
TABLE
2
STYLE
5
3
100
AcDbSymbolTable
70
1
0
STYLE
5
11
100
AcDbSymbolTableRecord
100
AcDbTextStyleTableRecord
2
STANDARD
70
0
0
ENDTAB
0
TABLE
2
VIEW
5
6
100
AcDbSymbolTable
70
0
0
ENDTAB
0
TABLE
2
UCS
5
7
100
AcDbSymbolTable
70
0
0
ENDTAB
0
TABLE
2
APPID
5
9
100
AcDbSymbolTable
70
2
0
APPID
5
12
100
AcDbSymbolTableRecord
100
AcDbRegAppTableRecord
2
ACAD
70
0
0
ENDTAB
0
TABLE
2
DIMSTYLE
5
A
100
AcDbSymbolTable
70
1
0
ENDTAB
0
TABLE
2
BLOCK_RECORD
5
1
100
AcDbSymbolTable
70
1
0
BLOCK_RECORD
5
1F
100
AcDbSymbolTableRecord
100
AcDbBlockTableRecord
2
*MODEL_SPACE
0
BLOCK_RECORD
5
1B
100
AcDbSymbolTableRecord
100
AcDbBlockTableRecord
2
*PAPER_SPACE
0
ENDTAB
0
ENDSEC
0
SECTION
2
BLOCKS
0
BLOCK
5
20
100
AcDbEntity
100
AcDbBlockBegin
2
*MODEL_SPACE
0
ENDBLK
5
21
100
AcDbEntity
100
AcDbBlockEnd
0
BLOCK
5
1C
100
AcDbEntity
100
AcDbBlockBegin
2
*PAPER_SPACE
0
ENDBLK
5
1D
100
AcDbEntity
100
AcDbBlockEnd
0
ENDSEC
0
SECTION
2
ENTITIES
0
LINE
5
100
100
AcDbEntity
8
0
100
AcDbLine
10
0
20
0
30
0
11
100
21
0
31
0
0
LINE
5
101
100
AcDbEntity
8
0
100
AcDbLine
10
0
20
40
30
0
11
-12.999999999999998
21
40
31
0
0
LINE
5
102
100
AcDbEntity
8
0
100
AcDbLine
10
100
20
40
30
0
11
113
21
40
31
0
0
SPLINE
5
103
100
AcDbEntity
8
0
100
AcDbSpline
70
1064
71
5
72
16
73
10
74
0
42
0.000000001
43
0.0000000001
44
0.0000000001
40
0
40
0
40
0
40
0
40
0
40
0
40
0.20000000000000001
40
0.40000000000000002
40
0.60000000000000009
40
0.80000000000000004
40
1
40
1
40
1
40
1
40
1
40
1
10
0
20
152
30
0
10
0.13917460174172572
20
146.93474681783988
30
0
10
0.34089142388114585
20
136.87227909596965
30
0
10
0.41366617019560392
20
121.9826076227402
30
0
10
0.019159623381021361
20
102.56612944478908
30
0
10
-1.6939947088805924
20
79.378736775634664
30
0
10
-4.655537792611983
20
62.241421505299776
30
0
10
-8.2211708005496131
20
50.582138021106296
30
0
10
-11.291425278442409
20
43.424714896213985
30
0
10
-12.999999999999998
20
40
30
0
0
SPLINE
5
104
100
AcDbEntity
8
0
100
AcDbSpline
70
1064
71
5
72
16
73
10
74
0
42
0.000000001
43
0.0000000001
44
0.0000000001
40
0
40
0
40
0
40
0
40
0
40
0
40
0.20000000000000001
40
0.40000000000000002
40
0.60000000000000009
40
0.80000000000000004
40
1
40
1
40
1
40
1
40
1
40
1
10
100
20
152
30
0
10
99.860825398258285
20
146.93474681783988
30
0
10
99.659108576118854
20
136.87227909596965
30
0
10
99.586333829804389
20
121.9826076227402
30
0
10
99.980840376618971
20
102.56612944478908
30
0
10
101.6939947088806
20
79.378736775634664
30
0
10
104.65553779261198
20
62.241421505299776
30
0
10
108.22117080054963
20
50.582138021106296
30
0
10
111.2914252784424
20
43.424714896213985
30
0
10
113
20
40
30
0
0
ARC
5
105
100
AcDbEntity
8
0
100
AcDbCircle
10
50.000000000000036
20
62.346153846153804
30
0
40
102.65384615384622
100
AcDbArc
50
60.851567603922554
51
119.14843239607751
0
CIRCLE
5
106
100
AcDbEntity
8
0
100
AcDbCircle
10
31.500000000000004
20
6.3749999999999982
30
0
40
1.5999999999999983
0
CIRCLE
5
107
100
AcDbEntity
8
0
100
AcDbCircle
10
31.500000000000004
20
43.374999999999993
30
0
40
1.6000000000000014
0
CIRCLE
5
108
100
AcDbEntity
8
0
100
AcDbCircle
10
68.5
20
43.374999999999993
30
0
40
1.5999999999999988
0
CIRCLE
5
109
100
AcDbEntity
8
0
100
AcDbCircle
10
68.5
20
6.3749999999999982
30
0
40
1.5999999999999996
0
CIRCLE
5
110
100
AcDbEntity
8
0
100
AcDbCircle
10
18.199999999999996
20
122.40000000000001
30
0
40
1.4999999999999964
0
CIRCLE
5
111
100
AcDbEntity
8
0
100
AcDbCircle
10
18.199999999999996
20
94.500000000000014
30
0
40
1.4999999999999978
0
CIRCLE
5
112
100
AcDbEntity
8
0
100
AcDbCircle
10
69
20
79.300000000000011
30
0
40
1.4999999999999958
0
CIRCLE
5
113
100
AcDbEntity
8
0
100
AcDbCircle
10
70.299999999999997
20
127.5
30
0
40
1.5000000000000031
0
LWPOLYLINE
5
114
100
AcDbEntity
8
0
100
AcDbPolyline
90
4
70
1
43
0.0
10
29.200000000000003
20
25.649999999999999
10
24.100000000000001
20
25.649999999999999
10
24.100000000000001
20
15.550000000000001
10
29.199999999999996
20
15.550000000000001
0
LINE
5
115
100
AcDbEntity
8
0
100
AcDbLine
10
0
20
25.650000000000006
30
0
11
5.0999999999999996
21
25.650000000000283
31
0
0
LINE
5
116
100
AcDbEntity
8
0
100
AcDbLine
10
5.0999999999999996
20
25.650000000000283
30
0
11
5.0999999999999996
21
15.55000000000028
31
0
0
LINE
5
117
100
AcDbEntity
8
0
100
AcDbLine
10
5.0999999999999996
20
15.55000000000028
30
0
11
0
21
15.550000000000001
31
0
0
LINE
5
118
100
AcDbEntity
8
0
100
AcDbLine
10
0
20
40
30
0
11
0
21
25.650000000000006
31
0
0
LINE
5
119
100
AcDbEntity
8
0
100
AcDbLine
10
0
20
15.550000000000001
30
0
11
0
21
0
31
0
0
LINE
5
120
100
AcDbEntity
8
0
100
AcDbLine
10
100
20
25.649999999999995
30
0
11
94.900000000000006
21
25.65000000000029
31
0
0
LINE
5
121
100
AcDbEntity
8
0
100
AcDbLine
10
94.900000000000006
20
25.65000000000029
30
0
11
94.900000000000006
21
15.550000000000285
31
0
0
LINE
5
122
100
AcDbEntity
8
0
100
AcDbLine
10
94.900000000000006
20
15.550000000000285
30
0
11
100
21
15.549999999999997
31
0
0
LWPOLYLINE
5
123
100
AcDbEntity
8
0
100
AcDbPolyline
90
4
70
1
43
0.0
10
70.799999999999997
20
15.550000000000001
10
70.799999999999997
20
25.650000000000006
10
75.900000000000006
20
25.650000000000006
10
75.900000000000006
20
15.550000000000001
0
LINE
5
124
100
AcDbEntity
8
0
100
AcDbLine
10
100
20
0
30
0
11
100
21
15.549999999999997
31
0
0
LINE
5
125
100
AcDbEntity
8
0
100
AcDbLine
10
100
20
25.649999999999995
30
0
11
100
21
40
31
0
0
LWPOLYLINE
5
126
100
AcDbEntity
8
0
100
AcDbPolyline
90
8
70
1
43
0.0
10
-92.929640197686297
20
22.714584345695652
10
-120.4296401976863
20
22.714584345695652
10
-120.42964019768631
20
12.71458434569565
10
-92.929640197686297
20
12.714584345695627
10
-92.929640197686297
20
8.7145843456956271
10
-87.929640197686297
20
8.714584345695604
10
-87.929640197686297
20
26.714584345695652
10
-92.929640197686297
20
26.714584345695652
0
LWPOLYLINE
5
127
100
AcDbEntity
8
0
100
AcDbPolyline
90
4
70
1
43
0.0
10
-114.72927153073411
20
16.214130531722418
10
-117.13114278325619
20
16.215038373964124
42
-0.99999999999999989
10
-117.13000886463848
20
19.215038159668872
10
-114.7281376121164
20
19.214130317427159
42
-0.99999999999999989
0
LINE
5
128
100
AcDbEntity
8
0
100
AcDbLine
10
-117.13057582394734
20
17.715038266816499
30
0
11
-114.72870457142525
21
17.71413042457479
31
0
0
LINE
5
129
100
AcDbEntity
8
0
100
AcDbLine
10
-99.858928825619671
20
16.219457716232689
30
0
11
-97.010598819780313
21
16.209728476231803
31
0
0
ARC
5
130
100
AcDbEntity
8
0
100
AcDbCircle
10
-97.005475194766589
20
17.709719725695198
30
0
40
1.5000000000000127
100
AcDbArc
50
-90.19570843996371
51
89.804291560036319
0
LINE
5
131
100
AcDbEntity
8
0
100
AcDbLine
10
-97.000351569752866
20
19.209710975158586
30
0
11
-99.848681575592209
21
19.219440215159477
31
0
0
ARC
5
132
100
AcDbEntity
8
0
100
AcDbCircle
10
-99.853805200605947
20
17.719448965696078
30
0
40
1.5000000000000147
100
AcDbArc
50
89.804291560035779
51
269.80429156003629
0
LINE
5
133
100
AcDbEntity
8
0
100
AcDbLine
10
-99.853805200605947
20
17.719448965696078
30
0
11
-97.005475194766589
21
17.709719725695198
31
0
0
ARC
5
134
100
AcDbEntity
8
0
100
AcDbCircle
10
-99.168040639982223
20
45.984979613025423
30
0
40
1.5000000000000084
100
AcDbArc
50
89.565685559411094
51
269.56568555941271
0
ARC
5
135
100
AcDbEntity
8
0
100
AcDbCircle
10
-113.45585970569788
20
45.966433716685991
30
0
40
1.4999999999999811
100
AcDbArc
50
-90.212254949269195
51
89.787745050730791
0
ARC
5
136
100
AcDbEntity
8
0
100
AcDbCircle
10
-116.45064902801317
20
45.977528107389034
30
0
40
1.4999999999999811
100
AcDbArc
50
89.787745050732411
51
269.78774505073079
0
ARC
5
137
100
AcDbEntity
8
0
100
AcDbCircle
10
-95.738468093728841
20
45.958982211049609
30
0
40
1.5000000000000171
100
AcDbArc
50
-90.434314440588381
51
89.565685559412728
0
LWPOLYLINE
5
138
100
AcDbEntity
8
0
100
AcDbPolyline
90
8
70
1
43
0.0
10
-88.66922738376708
20
54.986191464542443
10
-88.669218279878294
20
36.995732890268236
10
-93.669218279878294
20
36.995732890268272
10
-93.669218279878294
20
40.995732890268272
10
-121.16921827987829
20
40.995732890268293
10
-121.16921827987829
20
50.995732890268293
10
-93.669218279878294
20
50.995732890268293
10
-93.669218279878294
20
54.9957328902683
0
LINE
5
139
100
AcDbEntity
8
0
100
AcDbLine
10
-116.45064902801317
20
45.977528107389034
30
0
11
-113.45585970569788
21
45.966433716685991
31
0
0
LINE
5
140
100
AcDbEntity
8
0
100
AcDbLine
10
-113.45030289683027
20
47.466423423942416
30
0
11
-116.44509221914561
21
47.477517814645438
31
0
0
LINE
5
141
100
AcDbEntity
8
0
100
AcDbLine
10
-116.45620583688078
20
44.477538400132623
30
0
11
-113.46141651456549
21
44.466444009429587
31
0
0
LINE
5
142
100
AcDbEntity
8
0
100
AcDbLine
10
-99.168040639982223
20
45.984979613025423
30
0
11
-95.738468093728841
21
45.958982211049609
31
0
0
LINE
5
143
100
AcDbEntity
8
0
100
AcDbLine
10
-99.179410856559116
20
44.485022707586133
30
0
11
-95.749838310305762
21
44.459025305610311
31
0
0
LINE
5
144
100
AcDbEntity
8
0
100
AcDbLine
10
-95.727097877151948
20
47.458939116488914
30
0
11
-99.156670423405288
21
47.484936518464721
31
0
0
LWPOLYLINE
5
145
100
AcDbEntity
8
0
100
AcDbPolyline
90
8
70
1
43
0.0
10
-88.613864996796565
20
65.532523226198961
10
-93.613864996796565
20
65.53252322619899
10
-93.613864996796565
20
69.532523226199004
10
-121.11386499679656
20
69.532523226199018
10
-121.11386499679656
20
79.532523226199018
10
-93.613864996796565
20
79.532523226199018
10
-93.613864996796565
20
83.532523226199018
10
-88.613876981722939
20
83.521575663918156
0
ARC
5
146
100
AcDbEntity
8
0
100
AcDbCircle
10
-95.777705435408734
20
74.490012959193464
30
0
40
1.4999999999999989
100
AcDbArc
50
-90.509662732853954
51
89.490337267146032
0
LWPOLYLINE
5
147
100
AcDbEntity
8
0
100
AcDbPolyline
90
4
70
1
43
0.0
10
-116.49446141585548
20
73.012625986397623
42
-0.99999999999999989
10
-116.47969952178245
20
76.012589667258354
10
-113.48374437509148
20
75.997847497942942
42
-0.99999999999999989
10
-113.49850626916461
20
72.997883817082197
0
LINE
5
148
100
AcDbEntity
8
0
100
AcDbLine
10
-95.76436267222627
20
75.989953614909766
30
0
11
-99.187157592355845
21
76.020401180863374
31
0
0
ARC
5
149
100
AcDbEntity
8
0
100
AcDbCircle
10
-99.200500355538267
20
74.520460525147058
30
0
40
1.5000000000000075
100
AcDbArc
50
89.490337267147666
51
269.49033726714549
0
LINE
5
150
100
AcDbEntity
8
0
100
AcDbLine
10
-116.48708046881896
20
74.512607826827988
30
0
11
-113.49112532212803
21
74.497865657512563
31
0
0
LINE
5
151
100
AcDbEntity
8
0
100
AcDbLine
10
-99.213843118720746
20
73.020519869430785
30
0
11
-95.791048198591199
21
72.990072303477149
31
0
0
LINE
5
152
100
AcDbEntity
8
0
100
AcDbLine
10
-99.200500355538267
20
74.520460525147058
30
0
11
-95.777705435408734
21
74.490012959193464
31
0
0
LWPOLYLINE
5
153
100
AcDbEntity
8
0
100
AcDbPolyline
90
4
70
1
43
0.0
10
-114.72876629657506
20
19.214187557643317
42
-0.99999999999999989
10
-114.72990161447055
20
16.214187772467771
10
-117.12993996311567
20
16.215096041361821
42
-0.99999999999999989
10
-117.12880464522027
20
19.215095826537375
0
LWPOLYLINE
5
154
100
AcDbEntity
8
0
100
AcDbPolyline
90
8
70
1
43
0.0
10
-92.92935312984541
20
22.714641799502576
10
-120.42935312984541
20
22.714641799502576
10
-120.4293531298454
20
12.714641799502576
10
-92.92935312984541
20
12.714641799502555
10
-92.92935312984541
20
8.7146417995025569
10
-87.92935312984541
20
8.7146417995025338
10
-87.92935312984541
20
26.714641799502576
10
-92.92935312984541
20
26.714641799502576
0
LWPOLYLINE
5
155
100
AcDbEntity
8
0
100
AcDbPolyline
90
4
70
1
43
0.0
10
-97.011250669052188
20
16.209789505474973
10
-99.857702064320677
20
16.219511591951658
42
-0.99999999999999989
10
-99.847455590638646
20
19.219494093530162
10
-97.001004195370101
20
19.209772007053473
42
-0.99999999999999989
0
LINE
5
156
100
AcDbEntity
8
0
100
AcDbLine
10
-99.852578827479661
20
17.719502842740912
30
0
11
-97.006127432211144
21
17.709780756264223
31
0
0
LINE
5
157
100
AcDbEntity
8
0
100
AcDbLine
10
-117.12937230416797
20
17.715095933949598
30
0
11
-114.7293339555228
21
17.714187665055544
31
0
0
ARC
5
158
100
AcDbEntity
8
0
100
AcDbCircle
10
-113.06863312992223
20
102.31599354950185
30
0
40
1.50000000000001
100
AcDbArc
50
-90.301615683990221
51
89.698384316009239
0
LWPOLYLINE
5
159
100
AcDbEntity
8
0
100
AcDbPolyline
90
8
70
1
43
0.0
10
-93.007387775176824
20
107.35194554260326
10
-120.50738777517682
20
107.35194554260326
10
-120.50738777517681
20
97.351945542603261
10
-93.007387775176795
20
97.351945542603204
10
-93.007387775176795
20
93.351945542603204
10
-88.007387775176795
20
93.35194554260319
10
-88.007400490928646
20
111.34066913552661
10
-93.007387775176824
20
111.35194554260326
0
LINE
5
160
100
AcDbEntity
8
0
100
AcDbLine
10
-98.795274265410669
20
100.83957664646675
30
0
11
-95.370620460648681
21
100.80833462701665
31
0
0
LINE
5
161
100
AcDbEntity
8
0
100
AcDbLine
10
-95.343253560564335
20
103.80820979988292
30
0
11
-98.76790736532628
21
103.83945181933298
31
0
0
ARC
5
162
100
AcDbEntity
8
0
100
AcDbCircle
10
-116.06989469605273
20
102.33179289684777
30
0
40
1.4999999999999922
100
AcDbArc
50
89.698384316009225
51
269.69838431600868
0
LINE
5
163
100
AcDbEntity
8
0
100
AcDbLine
10
-98.781590815368475
20
102.33951423289986
30
0
11
-95.356937010606501
21
102.30827221344978
31
0
0
ARC
5
164
100
AcDbEntity
8
0
100
AcDbCircle
10
-95.356937010606501
20
102.30827221344978
30
0
40
1.4999999999999567
100
AcDbArc
50
-90.522676540440628
51
89.477323459559926
0
ARC
5
165
100
AcDbEntity
8
0
100
AcDbCircle
10
-98.781590815368475
20
102.33951423289986
30
0
40
1.4999999999999567
100
AcDbArc
50
89.477323459558832
51
269.47732345955882
0
LINE
5
166
100
AcDbEntity
8
0
100
AcDbLine
10
-116.06989469605273
20
102.33179289684777
30
0
11
-113.06863312992223
21
102.31599354950185
31
0
0
LINE
5
167
100
AcDbEntity
8
0
100
AcDbLine
10
-113.06073688625008
20
103.8159727658032
30
0
11
-116.06199845238058
21
103.83177211314907
31
0
0
LINE
5
168
100
AcDbEntity
8
0
100
AcDbLine
10
-116.07779093972489
20
100.83181368054646
30
0
11
-113.07652937359437
21
100.81601433320054
31
0
0
LWPOLYLINE
5
169
100
AcDbEntity
8
0
100
AcDbPolyline
90
20
70
1
43
0.0
10
-40.86342298847137
20
111.67537837473225
10
-65.863422988471385
20
111.67537837473226
10
-65.86342298847137
20
109.67537837473228
10
-70.86342298847137
20
109.67537837473228
10
-70.863422988471385
20
101.67537837473226
10
-65.863422988471356
20
101.67537837473235
10
-65.86342298847137
20
21.675377421910206
10
-70.863422988471413
20
21.675377421910298
10
-70.863422988471413
20
13.675377421910287
10
-65.86342298847137
20
13.675377421910284
10
-65.86342298847137
20
11.675378374732258
10
-40.863422988471427
20
11.675378374732258
10
-40.863422988471427
20
13.675377421910275
10
-35.863422988471463
20
13.675377421910275
10
-35.863422988471456
20
21.675377421910284
10
-40.863422988471427
20
21.675377421910191
10
-40.86342298847142
20
101.67537837473233
10
-35.863422988471413
20
101.67537837473225
10
-35.863422988471413
20
109.67537837473225
10
-40.86342298847137
20
109.67537837473225
0
LWPOLYLINE
5
170
100
AcDbEntity
8
0
100
AcDbPolyline
90
4
70
1
43
0.0
10
98.100000000000009
20
62
10
90
20
62
10
90
20
67.099999999999994
10
98.100000000000009
20
67.099999999999994
0
CIRCLE
5
171
100
AcDbEntity
8
0
100
AcDbCircle
10
-59.363422988471399
20
69.92537789832123
30
0
40
1.4999999999999944
0
CIRCLE
5
172
100
AcDbEntity
8
0
100
AcDbCircle
10
-59.363422988471399
20
53.425377898321251
30
0
40
1.4999999999999876
0
LWPOLYLINE
5
173
100
AcDbEntity
8
0
100
AcDbPolyline
90
4
70
1
43
0.0
10
-48.363422988471392
20
72.175377898321244
10
-45.363422988471392
20
72.175377898321244
10
-45.363422988471392
20
51.175379518118689
10
-48.363422988471392
20
51.175379518118689
0
CIRCLE
5
174
100
AcDbEntity
8
0
100
AcDbCircle
10
-53.363422988471399
20
87.17537789832123
30
0
40
3.4999999999999991
0
CIRCLE
5
175
100
AcDbEntity
8
0
100
AcDbCircle
10
-53.363422988471392
20
36.175377898321258
30
0
40
3.4999999999999867
0
LWPOLYLINE
5
176
100
AcDbEntity
8
0
100
AcDbPolyline
90
4
70
1
43
0.0
10
1.899999999999995
20
67.099999999999994
10
1.899999999999995
20
62.000000000000014
10
10
20
62.000000000000014
10
10
20
67.099999999999994
0
CIRCLE
5
177
100
AcDbEntity
8
0
100
AcDbCircle
10
8.7146038154524632
20
72.099999999999994
30
0
40
1.5000000000000002
0
CIRCLE
5
178
100
AcDbEntity
8
0
100
AcDbCircle
10
8.7146038154523957
20
148
30
0
40
1.5000000000000004
0
CIRCLE
5
179
100
AcDbEntity
8
0
100
AcDbCircle
10
91.285396184547608
20
148
30
0
40
1.5000000000000004
0
CIRCLE
5
180
100
AcDbEntity
8
0
100
AcDbCircle
10
91.285396184547523
20
72.100000000000009
30
0
40
1.5000000000000002
0
CIRCLE
5
181
100
AcDbEntity
8
0
100
AcDbCircle
10
76.5
20
43.75
30
0
40
2.4999999999999964
0
CIRCLE
5
182
100
AcDbEntity
8
0
100
AcDbCircle
10
23.500000000000007
20
43.75
30
0
40
2.4999999999999996
0
LWPOLYLINE
5
183
100
AcDbEntity
8
0
100
AcDbPolyline
90
4
70
1
43
0.0
10
54.000000804662704
20
51.25
10
45.999999195337296
20
51.25
42
-0.99999999999999989
10
45.999999195337296
20
56.25
10
54.000000804662704
20
56.25
42
-0.99999999999999989
0
LINE
5
184
100
AcDbEntity
8
0
100
AcDbLine
10
45.999999195337296
20
53.75
30
0
11
54.000000804662704
21
53.75
31
0
0
CIRCLE
5
185
100
AcDbEntity
8
0
100
AcDbCircle
10
89.299999999999997
20
110
30
0
40
3.9999999999999964
0
CIRCLE
5
186
100
AcDbEntity
8
0
100
AcDbCircle
10
24.199999999999996
20
137
30
0
40
2.5
0
CIRCLE
5
187
100
AcDbEntity
8
0
100
AcDbCircle
10
41.199999999999989
20
137
30
0
40
2.5
0
CIRCLE
5
188
100
AcDbEntity
8
0
100
AcDbCircle
10
58.199999999999996
20
137
30
0
40
2.5
0
CIRCLE
5
189
100
AcDbEntity
8
0
100
AcDbCircle
10
75.199999999999989
20
137
30
0
40
2.4999999999999951
0
CIRCLE
5
190
100
AcDbEntity
8
0
100
AcDbCircle
10
41.199999999999989
20
69.700000000000017
30
0
40
2.5
0
CIRCLE
5
191
100
AcDbEntity
8
0
100
AcDbCircle
10
24.199999999999996
20
69.700000000000017
30
0
40
2.5
0
CIRCLE
5
192
100
AcDbEntity
8
0
100
AcDbCircle
10
58.199999999999996
20
69.700000000000017
30
0
40
2.5
0
CIRCLE
5
193
100
AcDbEntity
8
0
100
AcDbCircle
10
75.199999999999989
20
69.700000000000017
30
0
40
2.4999999999999951
0
LWPOLYLINE
5
194
100
AcDbEntity
8
0
100
AcDbPolyline
90
4
70
1
43
0.0
10
215.89978559145857
20
15.30498092418123
10
210.79978559145854
20
15.30498092418123
10
210.79978559145854
20
25.404980924181228
10
215.89978559145857
20
25.404980924181228
0
CIRCLE
5
195
100
AcDbEntity
8
0
100
AcDbCircle
10
148.54330452696271
20
148.00092491311241
30
0
40
1.5000000000000004
0
LINE
5
196
100
AcDbEntity
8
0
100
AcDbLine
10
239.9997855914533
20
-0.2450190758187672
30
0
11
239.99978559145649
21
15.549999999962758
31
0
0
LINE
5
197
100
AcDbEntity
8
0
100
AcDbLine
10
145.09978559144508
20
15.549999999962766
30
0
11
139.99978559145009
21
15.549999999962766
31
0
0
CIRCLE
5
198
100
AcDbEntity
8
0
100
AcDbCircle
10
171.49978559145327
20
43.129980924181233
30
0
40
1.6000000000000014
0
LINE
5
199
100
AcDbEntity
8
0
100
AcDbLine
10
139.99978559145009
20
15.549999999962766
30
0
11
139.99978559145327
21
-0.24501907581876717
31
0
0
LWPOLYLINE
5
200
100
AcDbEntity
8
0
100
AcDbPolyline
90
4
70
1
43
0.0
10
238.09978559145327
20
66.854980924181234
10
238.09978559145327
20
61.754980924181233
10
229.9997855914533
20
61.754980924181233
10
229.9997855914533
20
66.854980924181234
0
LWPOLYLINE
5
201
100
AcDbEntity
8
0
100
AcDbPolyline
90
4
70
1
43
0.0
10
164.09978559144804
20
25.404980924181231
10
164.09978559144804
20
15.304980924181233
10
169.19978559144806
20
15.304980924181233
10
169.19978559144806
20
25.404980924181231
0
CIRCLE
5
202
100
AcDbEntity
8
0
100
AcDbCircle
10
208.4997855914533
20
6.1299809241812326
30
0
40
1.5999999999999996
0
LINE
5
203
100
AcDbEntity
8
0
100
AcDbLine
10
186.01083401811894
20
53.50498092418124
30
0
11
193.98873716478761
21
53.504980924181218
31
0
0
CIRCLE
5
204
100
AcDbEntity
8
0
100
AcDbCircle
10
231.45626665594392
20
148.00092491311241
30
0
40
1.5000000000000004
0
CIRCLE
5
205
100
AcDbEntity
8
0
100
AcDbCircle
10
163.49978559145327
20
43.504980924181226
30
0
40
2.4999999999999996
0
CIRCLE
5
206
100
AcDbEntity
8
0
100
AcDbCircle
10
216.49978559145327
20
43.50498092418124
30
0
40
2.4999999999999964
0
LINE
5
207
100
AcDbEntity
8
0
100
AcDbLine
10
145.09978559144801
20
25.649999999952094
30
0
11
145.09978559144508
21
15.549999999962766
31
0
0
LWPOLYLINE
5
208
100
AcDbEntity
8
0
100
AcDbPolyline
90
4
70
1
43
0.0
10
149.9997855914533
20
66.854980924181234
10
141.89978559145331
20
66.854980924181234
10
141.89978559145331
20
61.75498092418124
10
149.9997855914533
20
61.75498092418124
0
LINE
5
209
100
AcDbEntity
8
0
100
AcDbLine
10
139.99978559144517
20
39.754980924181226
30
0
11
126.99978559144517
21
39.754980924181226
31
0
0
LWPOLYLINE
5
210
100
AcDbEntity
8
0
100
AcDbPolyline
90
4
70
1
43
0.0
10
193.98873716478761
20
51.00498092418124
10
186.01083401811891
20
51.004980924181226
42
-0.99999999999999989
10
186.010834018119
20
56.004980924181247
10
193.98873716478761
20
56.004980924181204
42
-0.99999999999999989
0
LINE
5
211
100
AcDbEntity
8
0
100
AcDbLine
10
139.99978559144517
20
39.754980924181226
30
0
11
139.99978559144805
21
25.649999999952684
31
0
0
LINE
5
212
100
AcDbEntity
8
0
100
AcDbLine
10
239.99978559145856
20
25.649999999952676
30
0
11
239.99978559145856
21
39.754980924181233
31
0
0
CIRCLE
5
213
100
AcDbEntity
8
0
100
AcDbCircle
10
208.49978559145327
20
43.129980924181233
30
0
40
1.5999999999999988
0
LINE
5
214
100
AcDbEntity
8
0
100
AcDbLine
10
234.89978559146149
20
15.549999999962763
30
0
11
239.99978559145649
21
15.549999999962758
31
0
0
LINE
5
215
100
AcDbEntity
8
0
100
AcDbLine
10
139.99978559145327
20
-0.24501907581876717
30
0
11
239.9997855914533
21
-0.2450190758187672
31
0
0
LINE
5
216
100
AcDbEntity
8
0
100
AcDbLine
10
139.99978559144805
20
25.649999999952684
30
0
11
145.09978559144801
21
25.649999999952094
31
0
0
LINE
5
217
100
AcDbEntity
8
0
100
AcDbLine
10
239.99978559145856
20
25.649999999952676
30
0
11
234.89978559145854
21
25.64999999995209
31
0
0
SPLINE
5
218
100
AcDbEntity
8
0
100
AcDbSpline
70
1064
71
5
72
16
73
10
74
0
42
0.000000001
43
0.0000000001
44
0.0000000001
40
0
40
0
40
0
40
0
40
0
40
0
40
0.20000000000000001
40
0.40000000000000002
40
0.60000000000000009
40
0.80000000000000004
40
1
40
1
40
1
40
1
40
1
40
1
10
140.14454916534908
20
151.8340911582327
30
0
10
140.27886146204202
20
146.76438717278958
30
0
10
140.47037042812062
20
136.69327496142199
30
0
10
140.52638515868477
20
121.79140752386063
30
0
10
140.10720991033321
20
102.36009440716367
30
0
10
138.36188126658874
20
79.156430179514615
30
0
10
135.37576207334789
20
62.008227078131419
30
0
10
131.79350028563766
20
50.342342091176548
30
0
10
128.71315597043923
20
43.181305501054069
30
0
10
126.99978559144517
20
39.754980924181226
30
0
0
SPLINE
5
219
100
AcDbEntity
8
0
100
AcDbSpline
70
1064
71
5
72
16
73
10
74
0
42
0.000000001
43
0.0000000001
44
0.0000000001
40
0
40
0
40
0
40
0
40
0
40
0
40
0.20000000000000001
40
0.40000000000000002
40
0.60000000000000009
40
0.80000000000000004
40
1
40
1
40
1
40
1
40
1
40
1
10
239.8550220175575
20
151.83409115823267
30
0
10
239.72070972086456
20
146.76438717278955
30
0
10
239.52920075478627
20
136.69327496142205
30
0
10
239.47318602422601
20
121.79140752386084
30
0
10
239.89236127257811
20
102.36009440716435
30
0
10
241.63768991632094
20
79.156430179515255
30
0
10
244.62380910955926
20
62.008227078131746
30
0
10
248.206070897269
20
50.342342091176597
30
0
10
251.28641521246735
20
43.181305501054069
30
0
10
252.9997855914614
20
39.754980924181226
30
0
0
LINE
5
220
100
AcDbEntity
8
0
100
AcDbLine
10
234.89978559145854
20
25.64999999995209
30
0
11
234.89978559146149
21
15.549999999962763
31
0
0
LINE
5
221
100
AcDbEntity
8
0
100
AcDbLine
10
239.99978559145856
20
39.754980924181233
30
0
11
252.99978559145856
21
39.754980924181233
31
0
0
CIRCLE
5
222
100
AcDbEntity
8
0
100
AcDbCircle
10
171.4997855914533
20
6.1299809241812317
30
0
40
1.5999999999999983
0
ARC
5
223
100
AcDbEntity
8
0
100
AcDbCircle
10
189.9997855914533
20
62.111353453692715
30
0
40
102.64362747048851
100
AcDbArc
50
60.940872048550027
51
119.05912795144999
0
CIRCLE
5
224
100
AcDbEntity
8
0
100
AcDbCircle
10
231.45626665594398
20
71.854980924181234
30
0
40
1.5000000000000002
0
CIRCLE
5
225
100
AcDbEntity
8
0
100
AcDbCircle
10
148.5433045269626
20
71.854980924181262
30
0
40
1.5000000000000002
0
CIRCLE
5
226
100
AcDbEntity
8
0
100
AcDbCircle
10
50
20
152
30
0
40
1.5000000000000062
0
CIRCLE
5
227
100
AcDbEntity
8
0
100
AcDbCircle
10
189.99978559145325
20
151.75498092418121
30
0
40
1.5000000000000124
0
CIRCLE
5
228
100
AcDbEntity
8
0
100
AcDbCircle
10
165.49978559145325
20
131.00009163848381
30
0
40
1.5000000000000098
0
CIRCLE
5
229
100
AcDbEntity
8
0
100
AcDbCircle
10
165.49978559145327
20
73.000091638483809
30
0
40
1.4999999999999956
0
CIRCLE
5
230
100
AcDbEntity
8
0
100
AcDbCircle
10
214.4997855914533
20
73.000091638483795
30
0
40
1.5000000000000082
0
CIRCLE
5
231
100
AcDbEntity
8
0
100
AcDbCircle
10
214.4997855914533
20
131.00009163848381
30
0
40
1.5000000000000071
0
LWPOLYLINE
5
232
100
AcDbEntity
8
0
100
AcDbPolyline
90
4
70
1
43
0.0
10
160.49978559145327
20
129.00000192224979
10
155.49978559145327
20
129.00000192224979
10
155.49978559145327
20
74.00000192224978
10
160.49978559145327
20
74.00000192224978
0
LWPOLYLINE
5
233
100
AcDbEntity
8
0
100
AcDbPolyline
90
4
70
1
43
0.0
10
219.49978559145333
20
74.00000192224978
10
219.49978559145333
20
129.00000192224979
10
224.49978559145333
20
129.00000192224979
10
224.49978559145333
20
74.00000192224978
0
CIRCLE
5
234
100
AcDbEntity
8
0
100
AcDbCircle
10
168.49978559145327
20
106.00009163848381
30
0
40
2.500000000000008
0
CIRCLE
5
235
100
AcDbEntity
8
0
100
AcDbCircle
10
168.4997855914533
20
151.00009163848381
30
0
40
2.500000000000004
0
CIRCLE
5
236
100
AcDbEntity
8
0
100
AcDbCircle
10
211.4997855914533
20
151.00009163848381
30
0
40
2.500000000000004
0
CIRCLE
5
237
100
AcDbEntity
8
0
100
AcDbCircle
10
211.4997855914533
20
106.00009163848382
30
0
40
2.500000000000008
0
LWPOLYLINE
5
238
100
AcDbEntity
8
0
100
AcDbPolyline
90
4
70
1
43
0.0
10
-135.74774135332294
20
72.862520336307014
10
-138.98599910036415
20
72.883140118117439
42
-0.99999999999999989
10
-138.96689682493241
20
75.883079301346598
10
-135.72863907789124
20
75.862459519536159
42
-0.99999999999999989
0
LWPOLYLINE
5
239
100
AcDbEntity
8
0
100
AcDbPolyline
90
8
70
1
43
0.0
10
-131.59063739974809
20
107.3755628535186
10
-164.09063739974806
20
107.3755628535186
10
-164.090637399748
20
97.375562853518588
10
-131.590637399748
20
97.37556285351873
10
-131.590637399748
20
93.37556285351873
10
-126.590637399748
20
93.375562853518204
10
-126.59065810747462
20
111.36117268893999
10
-131.59063739974809
20
111.37556285351863
0
LINE
5
240
100
AcDbEntity
8
0
100
AcDbLine
10
-138.42698599799851
20
45.985962227606592
30
0
11
-134.73816077764556
21
45.957999596468547
31
0
0
LWPOLYLINE
5
241
100
AcDbEntity
8
0
100
AcDbPolyline
90
4
70
1
43
0.0
10
-154.58043086120648
20
72.872026465042623
10
-155.14252388968373
20
72.873584700196432
42
-0.99999999999999989
10
-155.13420731704889
20
75.873573172610975
10
-154.57211428857167
20
75.872014937457109
42
-0.99999999999999989
0
LWPOLYLINE
5
242
100
AcDbEntity
8
0
100
AcDbPolyline
90
8
70
1
43
0.0
10
-131.85731908912769
20
79.372799818826763
10
-164.35731908912769
20
79.372799818826763
10
-164.35731908912769
20
69.372799818826763
10
-131.85731908912763
20
69.372799818826849
10
-131.85731908912763
20
65.372799818826849
10
-126.85731908912763
20
65.372799818826081
10
-126.8573190891277
20
83.372799818826763
10
-131.85731908912769
20
83.372799818826763
0
ARC
5
243
100
AcDbEntity
8
0
100
AcDbCircle
10
-151.3042468347596
20
102.31128887435003
30
0
40
1.5000000000000278
100
AcDbArc
50
-90.301615683990789
51
89.698384316010305
0
LINE
5
244
100
AcDbEntity
8
0
100
AcDbLine
10
-155.13836560336631
20
74.373578936403703
30
0
11
-154.57627257488906
21
74.372020701249866
31
0
0
LINE
5
245
100
AcDbEntity
8
0
100
AcDbLine
10
-138.04053179528216
20
102.34069673250232
30
0
11
-134.35663407262595
21
102.30708971384738
31
0
0
LINE
5
246
100
AcDbEntity
8
0
100
AcDbLine
10
-156.09291903314843
20
102.33649757199964
30
0
11
-151.3042468347596
21
102.31128887435003
31
0
0
LWPOLYLINE
5
247
100
AcDbEntity
8
0
100
AcDbPolyline
90
4
70
1
43
0.0
10
-138.05421524532437
20
100.84075914606916
42
-0.99999999999999989
10
-138.02684834523998
20
103.84063431893549
10
-134.34295062258374
20
103.80702730028047
42
-0.99999999999999989
10
-134.37031752266816
20
100.8071521274143
0
LINE
5
248
100
AcDbEntity
8
0
100
AcDbLine
10
-156.10081527682058
20
100.83651835569836
30
0
11
-151.31214307843175
21
100.81130965804869
31
0
0
LINE
5
249
100
AcDbEntity
8
0
100
AcDbLine
10
-134.72679056106864
20
47.457956501907852
30
0
11
-138.41561578142159
21
47.485919133045876
31
0
0
LWPOLYLINE
5
250
100
AcDbEntity
8
0
100
AcDbPolyline
90
8
70
1
43
0.0
10
-127.5305088129939
20
37.00952341438056
10
-132.5305088129939
20
37.009523414381647
10
-132.5305088129939
20
41.009523414381654
10
-165.03050881299387
20
41.00952341438159
10
-165.03050881299387
20
51.00952341438159
10
-132.53050881299387
20
51.00952341438159
10
-132.5305088129939
20
55.00952341438159
10
-127.53051977963908
20
54.99905124499552
0
ARC
5
251
100
AcDbEntity
8
0
100
AcDbCircle
10
-134.73816077764556
20
45.957999596468547
30
0
40
1.5000000000000171
100
AcDbArc
50
-90.434314440587258
51
89.565685559411634
0
LINE
5
252
100
AcDbEntity
8
0
100
AcDbLine
10
-138.43835621457541
20
44.486005322167287
30
0
11
-134.74953099422245
21
44.458042691029249
31
0
0
LINE
5
253
100
AcDbEntity
8
0
100
AcDbLine
10
-138.97644796264828
20
74.383109709732025
30
0
11
-135.73819021560709
21
74.362489927921587
31
0
0
LINE
5
254
100
AcDbEntity
8
0
100
AcDbLine
10
-151.29635059108747
20
103.81126809065131
30
0
11
-156.08502278947628
21
103.8364767883009
31
0
0
ARC
5
255
100
AcDbEntity
8
0
100
AcDbCircle
10
-138.42698599799851
20
45.985962227606592
30
0
40
1.4999999999999993
100
AcDbArc
50
89.565685559411634
51
269.56568555941271
0
ARC
5
256
100
AcDbEntity
8
0
100
AcDbCircle
10
-156.09291903314843
20
102.33649757199964
30
0
40
1.4999999999999567
100
AcDbArc
50
89.698384316009225
51
269.6983843160092
0
LWPOLYLINE
5
257
100
AcDbEntity
8
0
100
AcDbPolyline
90
4
70
1
43
0.0
10
-154.99826654542397
20
47.475383449367492
10
-153.15576661248497
20
47.468557789220384
42
-0.99999999999999989
10
-153.16688023022016
20
44.46857837470759
10
-155.00938016315916
20
44.475404034854719
42
-0.99999999999999989
0
LINE
5
258
100
AcDbEntity
8
0
100
AcDbLine
10
-155.00382335429157
20
45.975393742111102
30
0
11
-153.16132342135256
21
45.968568081963987
31
0
0
LWPOLYLINE
5
259
100
AcDbEntity
8
0
100
AcDbPolyline
90
12
70
1
43
0.0
10
354.84975059472043
20
189.8929339293345
10
354.84975059472043
20
-0.10706607066546459
10
342.98783003924666
20
-0.1070660706654214
10
342.98783003924666
20
4.9929339293345789
10
332.88783003924669
20
4.9929339293345771
10
332.88783003924669
20
-0.10706607066542419
10
279.84975059472043
20
-0.10706607066545359
10
279.84975059472043
20
189.89293392933456
10
332.88783003924709
20
189.8929339293345
10
332.88783003924709
20
184.79293392933454
10
342.98783003924706
20
184.79293392933448
10
342.98783003924706
20
189.8929339293345
0
CIRCLE
5
260
100
AcDbEntity
8
0
100
AcDbCircle
10
346.84975059472043
20
34.892933929334561
30
0
40
2.9999999999999809
0
CIRCLE
5
261
100
AcDbEntity
8
0
100
AcDbCircle
10
287.84975059472038
20
7.8929339293345695
30
0
40
3.0000000000000133
0
CIRCLE
5
262
100
AcDbEntity
8
0
100
AcDbCircle
10
287.84975059472038
20
181.89293392933448
30
0
40
3.0000000000000124
0
CIRCLE
5
263
100
AcDbEntity
8
0
100
AcDbCircle
10
346.84975059472038
20
154.8929339293345
30
0
40
2.9999999999999987
0
CIRCLE
5
264
100
AcDbEntity
8
0
100
AcDbCircle
10
337.63783003924681
20
141.64425373727474
30
0
40
1.5000000000000031
0
CIRCLE
5
265
100
AcDbEntity
8
0
100
AcDbCircle
10
285.53783003924678
20
136.54425373727474
30
0
40
1.4999999999999964
0
CIRCLE
5
266
100
AcDbEntity
8
0
100
AcDbCircle
10
285.53783003924678
20
108.64425373727472
30
0
40
1.4999999999999978
0
CIRCLE
5
267
100
AcDbEntity
8
0
100
AcDbCircle
10
336.3378300392468
20
93.444253737274735
30
0
40
1.4999999999999958
0
CIRCLE
5
268
100
AcDbEntity
8
0
100
AcDbCircle
10
335.8378300392468
20
78.930172016806864
30
0
40
1.5999999999999988
0
CIRCLE
5
269
100
AcDbEntity
8
0
100
AcDbCircle
10
298.8378300392468
20
78.930172016806864
30
0
40
1.6000000000000014
0
CIRCLE
5
270
100
AcDbEntity
8
0
100
AcDbCircle
10
335.8378300392468
20
41.930172016806878
30
0
40
1.5999999999999996
0
CIRCLE
5
271
100
AcDbEntity
8
0
100
AcDbCircle
10
298.8378300392468
20
41.930172016806878
30
0
40
1.5999999999999983
0
LWPOLYLINE
5
272
100
AcDbEntity
8
0
100
AcDbPolyline
90
4
70
1
43
0.0
10
342.98783003924666
20
29.092933929334581
10
332.88783003924669
20
29.092933929334581
10
332.88783003924669
20
23.99293392933458
10
342.98783003924666
20
23.99293392933458
0
LWPOLYLINE
5
273
100
AcDbEntity
8
0
100
AcDbPolyline
90
4
70
1
43
0.0
10
332.88783003924692
20
165.79293392933451
10
342.98783003924689
20
165.79293392933451
10
342.98783003924689
20
160.69293392933449
10
332.88783003924692
20
160.69293392933449
0
CIRCLE
5
274
100
AcDbEntity
8
0
100
AcDbCircle
10
317.3378300392468
20
158.33611135111136
30
0
40
4.9999999999999885
0
CIRCLE
5
275
100
AcDbEntity
8
0
100
AcDbCircle
10
317.3378300392468
20
86.249572838972384
30
0
40
2.0000000000000169
0
CIRCLE
5
276
100
AcDbEntity
8
0
100
AcDbCircle
10
317.3378300392468
20
32.401300342756151
30
0
40
2.5000000000000155
0
CIRCLE
5
277
100
AcDbEntity
8
0
100
AcDbCircle
10
345.55433210095748
20
60.430172016806893
30
0
40
2.5
0
CIRCLE
5
278
100
AcDbEntity
8
0
100
AcDbCircle
10
336.48493941977608
20
86.285215515909698
30
0
40
2.0000000000000191
0
CIRCLE
5
279
100
AcDbEntity
8
0
100
AcDbCircle
10
336.02378385971599
20
32.791170548941366
30
0
40
2.0000000000000284
0
CIRCLE
5
280
100
AcDbEntity
8
0
100
AcDbCircle
10
295.8378300392468
20
30.639111268661033
30
0
40
2.0000000000000031
0
CIRCLE
5
281
100
AcDbEntity
8
0
100
AcDbCircle
10
295.13465753438965
20
86.900089595989783
30
0
40
1.9999999999999929
0
CIRCLE
5
282
100
AcDbEntity
8
0
100
AcDbCircle
10
378
20
182
30
0
40
3.0000000000000124
0
LWPOLYLINE
5
283
100
AcDbEntity
8
0
100
AcDbPolyline
90
8
70
1
43
0.0
10
433.14999999999998
20
190
10
445
20
190
10
445
20
3.944304526105059e-30
10
433.14999999999998
20
7.6524327413280993e-15
10
423.05000000000001
20
8.454474590267456e-14
10
370
20
0
10
370
20
190
10
423.05000000000001
20
190
0
CIRCLE
5
284
100
AcDbEntity
8
0
100
AcDbCircle
10
437
20
154.99999999999997
30
0
40
2.9999999999999987
0
CIRCLE
5
285
100
AcDbEntity
8
0
100
AcDbCircle
10
378
20
8.0000000000000089
30
0
40
3.0000000000000133
0
CIRCLE
5
286
100
AcDbEntity
8
0
100
AcDbCircle
10
437
20
35.000000000000014
30
0
40
2.9999999999999809
0
LWPOLYLINE
5
287
100
AcDbEntity
8
0
100
AcDbPolyline
90
8
70
1
43
0.0
10
535
20
190
10
535
20
3.944304526105059e-30
10
523.14999999999998
20
7.6524327413280993e-15
10
513.04999999999995
20
8.454474590267456e-14
10
460
20
0
10
460
20
190
10
513.04999999999995
20
190
10
523.14999999999998
20
190
0
CIRCLE
5
288
100
AcDbEntity
8
0
100
AcDbCircle
10
527
20
35.000000000000014
30
0
40
2.9999999999999809
0
CIRCLE
5
289
100
AcDbEntity
8
0
100
AcDbCircle
10
468
20
182
30
0
40
3.0000000000000124
0
CIRCLE
5
290
100
AcDbEntity
8
0
100
AcDbCircle
10
468
20
8.0000000000000089
30
0
40
3.0000000000000133
0
CIRCLE
5
291
100
AcDbEntity
8
0
100
AcDbCircle
10
527
20
154.99999999999997
30
0
40
2.9999999999999987
0
CIRCLE
5
292
100
AcDbEntity
8
0
100
AcDbCircle
10
401.26649657266887
20
86.780991271627187
30
0
40
1.4999999999999876
0
CIRCLE
5
293
100
AcDbEntity
8
0
100
AcDbCircle
10
401.26649657266887
20
103.28099127162722
30
0
40
1.4999999999999944
0
LWPOLYLINE
5
294
100
AcDbEntity
8
0
100
AcDbPolyline
90
4
70
1
43
0.0
10
412.26649657266887
20
105.53099127162723
10
415.26649657266887
20
105.53099127162723
10
415.26649657266887
20
84.530991271627215
10
412.26649657266887
20
84.530991271627215
0
LINE
5
295
100
AcDbEntity
8
0
100
AcDbLine
10
-134.72679056106864
20
23.26045544187954
30
0
11
-138.41561578142159
21
23.288418073017567
31
0
0
LINE
5
296
100
AcDbEntity
8
0
100
AcDbLine
10
-138.42698599799851
20
21.788461167578284
30
0
11
-134.73816077764556
21
21.760498536440238
31
0
0
LWPOLYLINE
5
297
100
AcDbEntity
8
0
100
AcDbPolyline
90
8
70
1
43
0.0
10
-127.81246018836326
20
30.799928913705354
10
-132.81245156354416
20
30.809215900122908
10
-132.81245156354416
20
26.809215900122908
10
-165.31245156354416
20
26.809215900122908
10
-165.31245156354416
20
16.809215900122904
10
-132.81245156354416
20
16.809215900121984
10
-132.81245156354413
20
12.809215900121984
10
-127.81245156354416
20
12.809215900121993
0
LINE
5
298
100
AcDbEntity
8
0
100
AcDbLine
10
-138.43835621457541
20
20.288504262138972
30
0
11
-134.74953099422245
21
20.260541631000937
31
0
0
LWPOLYLINE
5
299
100
AcDbEntity
8
0
100
AcDbPolyline
90
4
70
1
43
0.0
10
-153.15576661248497
20
23.271056729192068
42
-0.99999999999999989
10
-153.16688023022016
20
20.271077314679282
10
-155.00938016315916
20
20.277902974826407
42
-0.99999999999999989
10
-154.99826654542397
20
23.27788238933918
0
LINE
5
300
100
AcDbEntity
8
0
100
AcDbLine
10
-155.00382335429157
20
21.777892682082793
30
0
11
-153.16132342135256
21
21.771067021935675
31
0
0
ARC
5
301
100
AcDbEntity
8
0
100
AcDbCircle
10
-134.73816077764556
20
21.760498536440238
30
0
40
1.5000000000000171
100
AcDbArc
50
-90.434314440587258
51
89.565685559411634
0
ARC
5
302
100
AcDbEntity
8
0
100
AcDbCircle
10
-138.42698599799851
20
21.788461167578284
30
0
40
1.4999999999999993
100
AcDbArc
50
89.565685559411634
51
269.56568555941271
0
ENDSEC
0
SECTION
2
OBJECTS
0
DICTIONARY
5
C
100
AcDbDictionary
3
ACAD_GROUP
350
D
3
ACAD_MLINESTYLE
350
17
0
DICTIONARY
5
D
100
AcDbDictionary
0
DICTIONARY
5
1A
330
C
100
AcDbDictionary
0
DICTIONARY
5
17
100
AcDbDictionary
0
ENDSEC
0
EOF
